<svg xmlns="http://www.w3.org/2000/svg" width="309" height="187" viewBox="0 0 309 187" fill="none">
  <path d="M239.646 99.568C239.551 108.366 236.812 119.869 230.187 126.174C226.742 129.456 225.277 130.608 225.119 124.988C225.007 120.946 226.492 114.98 225.456 105.84C223.75 90.7704 210.587 59.5506 202.822 46.185C191.973 27.5124 157.875 -0.07057 134.924 11.9505C156.418 4.53077 177.321 19.1323 191.844 33.8132C202.011 44.0889 206.422 54.9493 212.281 68.0476L209.239 67.7094C202.14 51.7801 198.935 44.9866 185.76 33.1367C178.103 26.2473 165.348 16.2972 155.357 14.1552C142.386 11.3785 136.651 14.5017 132.894 14.8316C130.184 15.0696 130.434 14.2679 132.723 13.1364L129.852 13.8128C140.938 6.19677 162.947 0.555747 175.96 2.28856C182.489 3.15705 201.024 14.5685 206.363 19.2367C214.794 26.6063 227.416 47.2247 231.532 57.7051C235.81 68.6071 238.681 87.7307 239.638 99.5639L239.646 99.568Z" fill="#F8F8F7"/>
  <path d="M198.773 48.7278C196.255 45.1328 192.91 41.8258 189.651 38.8988C188.935 38.0888 188.278 37.2412 187.454 36.5272C186.971 37.713 189.53 38.7903 189.651 38.8988C194.004 43.8217 198.07 48.8531 201.474 54.4899C200.109 54.4231 201.511 61.0496 203.33 61.9473C203.538 62.0517 204.033 61.2834 205.527 61.9473C214.158 78.8578 224.994 103.038 219.039 121.769C218.007 152.212 218.835 123.385 221.74 113.297C221.835 97.259 215.664 82.123 209.243 67.7094L212.285 68.0476C216.288 76.9998 220.487 85.7139 222.755 95.3342C225.498 106.959 225.427 113.222 225.119 124.992C225.277 130.617 226.738 129.46 230.187 126.178C236.812 119.873 239.551 108.37 239.646 99.5722C240.404 108.954 241.328 113.297 236.604 122.111C232.093 130.533 223.708 135.598 215.493 139.907C221.915 105.468 218.431 90.6284 201.474 61.6091C191.024 43.7257 185.382 35.5752 166.68 24.3265C168.224 23.9675 162.619 21.6751 160.6 20.9361C148.836 16.6354 132.186 16.0592 123.443 26.6982C122.69 26.5521 122.494 25.4414 122.091 25.3412C123.422 23.8088 127.301 19.3745 128.341 18.5603C135.969 12.5977 148.22 13.0821 157.055 15.508C167.442 18.3598 194.008 39.2621 198.773 48.7237V48.7278Z" fill="#F3B56F"/>
  <path d="M270.05 67.7094C267.49 66.1645 260.071 59.5381 257.89 64.4901C257.449 65.4922 260.957 75.981 261.269 78.7242C261.502 80.7994 262.642 89.1962 259.242 84.4863C254.865 78.4194 253.084 33.2453 223.096 31.7797C221.786 29.955 219.801 28.4811 218.873 26.3558C243.924 23.6752 248.951 45.0618 256.708 63.9766C253.987 52.6277 248.115 37.7255 239.309 29.9133L239.48 29.0657C259.675 28.2014 269.097 50.6444 270.05 67.7052V67.7094Z" fill="#F8F8F7"/>
  <path d="M175.124 100.925C179.689 110.291 181.948 119.898 181.541 130.412C181.303 136.55 180.463 139.506 177.824 144.989C176.888 146.934 175.298 149.235 174.108 151.089C173.322 152.321 172.327 153.252 171.574 154.479C180.325 154.45 189.173 154.926 197.753 152.784C198.519 152.592 199.364 152.35 200.117 152.108C207.058 149.886 231.577 134.086 235.926 128.212C237.57 125.986 239.118 122.554 239.979 119.907C241.931 113.923 242.439 107.568 242.343 101.263C243.279 100.904 242.884 102.729 243.525 102.282C243.978 101.965 243.329 100.666 244.033 100.587C244.241 107.268 243.766 113.798 241.835 120.245C248.556 120.032 257.724 116.37 262.609 111.773C262.784 111.61 263.512 111.218 263.624 111.096C264.873 112.408 266.209 109.451 266.325 111.435C260.936 117.518 253.325 120.295 245.718 122.282C244.94 122.487 242.572 122.516 241.494 122.621C239.409 129.235 234.47 134.245 228.997 138.212C224.441 141.515 205.398 153.005 200.621 154.479C190.596 157.577 180.23 156.805 169.88 156.851C157.238 159.394 139.373 161.26 126.81 158.884C126.681 158.859 127.288 158.534 125.12 158.375C125.099 158.099 127.538 157.198 127.821 157.189C130.992 157.106 142.39 160.195 154.845 156.513C156.922 156.922 158.827 156.454 160.588 155.836C169.198 155.874 170.363 155.035 174.774 148.212C177.903 143.373 180.097 138.057 180.517 132.283C182.943 98.9125 150.388 62.4525 118.362 56.8658C108.657 55.1747 99.7021 54.8198 90.3222 58.2228C83.6224 60.6529 78.7369 64.9828 75.1206 71.104C76.2026 66.9537 80.493 62.6488 83.9053 60.2562C89.6023 56.2603 97.4466 54.3062 104.342 54.1559C133.285 53.5254 162.66 75.3797 175.111 100.929L175.124 100.925Z" fill="#3A2E24"/>
  <path d="M159.248 30.0887C172.498 34.1305 185.169 41.5878 194.041 52.4607C196.343 55.2791 198.203 58.5318 200.121 61.6133C202.943 66.1478 205.577 71.0331 207.891 75.8473C207.683 76.2607 208.69 79.5343 208.906 80.0854C209.31 81.1168 212.672 87.8476 210.933 85.5093C210.392 84.7828 209.734 81.8683 209.58 83.6471C203.346 71.3963 189.897 53.4503 178.332 46.0263C171.765 41.8091 159.901 36.903 152.319 35.1785C147.205 34.0177 129.793 31.621 125.465 32.8069V32.4687C139.057 27.2661 144.662 27.1909 159.248 30.097V30.0887Z" fill="#D19551"/>
  <path d="M194.041 52.4565C185.169 41.5837 172.498 34.1305 159.248 30.0845C144.3 25.5249 138.628 26.8986 124.454 31.1033C125.078 30.2348 127.184 28.502 128 28.051C132.523 25.5708 136.56 25.5499 141.512 24.9988C164.495 26.2431 182.352 31.0657 194.041 52.4523V52.4565Z" fill="#D19551"/>
  <path d="M160.6 20.9361C162.619 21.6751 168.224 23.9675 166.68 24.3265C152.107 20.41 134.791 18.9193 123.78 31.1075C123.655 31.1451 123.738 31.5501 121.416 32.1263C130.305 15.8963 144.92 18.9736 160.6 20.9403V20.9361Z" fill="#D19551"/>
  <path d="M118.037 36.8654C110.189 43.4 99.5772 47.0618 94.2215 50.4231C90.3098 52.8782 87.1388 56.3856 83.2437 58.8951C81.9911 59.7009 81.009 61.179 79.8646 60.2521C90.9881 46.2017 103.814 44.0388 118.374 35.5084L119.727 36.0178C118.52 36.0971 118.666 36.3393 118.037 36.8654Z" fill="#F1E0C9"/>
  <path d="M239.983 119.907C239.122 122.554 237.574 125.986 235.93 128.212C231.586 134.086 207.062 149.886 200.121 152.108C197.787 149.176 204.137 148.709 208.061 146.346C209.78 145.31 211.569 143.097 212.959 142.279C221.869 137.018 233.891 133.398 239.309 119.907H239.983Z" fill="#F3B56F"/>
  <path d="M160.6 20.9361C144.92 18.9695 130.301 15.8921 121.416 32.1221C120.517 32.3434 121.312 32.6858 119.727 32.4603C121.183 30.8611 122.149 28.2723 123.443 26.6982C132.186 16.0592 148.836 16.6354 160.6 20.9361Z" fill="#3A2E24"/>
  <path d="M132.902 14.8358C128.249 17.6375 123.909 21.2743 121.079 26.0218C120.638 26.765 120.043 26.8193 119.39 29.4122C117.725 34.9656 117.521 31.0574 118.374 27.55C119.785 21.7503 125.153 17.0571 129.86 13.8211L132.731 13.1447C130.442 14.2721 130.193 15.0779 132.902 14.8399V14.8358Z" fill="#F3B56F"/>
  <path d="M270.05 67.7094C270.528 76.2524 269.355 95.9229 265.659 103.468C263.217 108.453 256.592 112.767 251.64 114.821C249.189 115.84 237.578 118.813 246.912 117.193C251.431 116.408 258.427 113.113 261.943 110.073L262.617 111.769C257.728 116.366 248.564 120.028 241.844 120.241C243.774 113.794 244.249 107.263 244.041 100.583C243.65 88.048 238.864 62.6028 234.245 50.9283C231.523 44.0513 227.391 37.7464 223.096 31.7797C253.084 33.2453 254.865 78.4194 259.242 84.4863C262.642 89.1962 261.502 80.7994 261.269 78.7242C260.957 75.9768 257.449 65.4922 257.89 64.4901C260.071 59.5381 267.49 66.1645 270.05 67.7094Z" fill="#F3B56F"/>
  <path d="M293.358 59.2374C295.364 63.3795 295.984 67.534 295.721 72.1187C295.28 79.8599 291.41 88.6701 284.91 93.1337C284.852 91.5971 279.675 94.2778 276.296 94.1525C272.734 91.4802 275.676 88.1649 272.75 88.7286C275.139 74.6323 276.487 62.1352 271.398 48.3938C275.226 45.5503 281.236 48.9157 284.739 51.446C288.256 53.9805 291.111 58.4441 293.354 59.2416L293.358 59.2374Z" fill="#F3B56F"/>
  <path d="M295.384 89.0626C295.006 89.2088 294.54 91.1003 294.369 88.0438C294.76 86.9624 297.19 75.196 296.225 75.1626C292.563 98.8958 273.42 97.7392 270.89 99.9063C270.058 100.996 269.941 102.416 269.371 103.635C268.939 104.558 267.403 108.278 267.345 109.059C267.137 111.765 268.443 111.627 270.387 114.821L270.05 116.178C269.284 115.088 267.041 113.238 266.334 111.435C266.217 109.451 264.877 112.408 263.633 111.096C267.794 106.47 270.266 96.5283 271.402 90.4197L272.418 90.7579C272.205 91.9353 270.466 98.0023 271.236 98.5534C275.984 97.1421 280.753 95.9897 284.918 93.1295C291.419 88.666 295.285 79.8558 295.73 72.1145L297.082 70.7575C297.278 72.9788 297.548 75.125 297.419 77.3672C297.27 79.9894 294.049 93.3091 298.093 83.1293C300.524 77.0206 300.245 72.5863 296.741 67.0288C296.762 66.7699 296.791 66.653 297.078 66.6906C297.44 67.5424 299.646 70.2147 300.12 72.6239C301.352 78.8871 298.926 84.0646 295.393 89.0626H295.384Z" fill="#3A2E24"/>
  <path d="M294.369 88.048C290.848 97.7684 277.873 99.9814 269.371 103.639C269.941 102.42 270.058 101 270.89 99.9104C273.425 97.7434 292.563 98.9 296.225 75.1668C297.19 75.2002 294.76 86.9666 294.369 88.048Z" fill="#F3B56F"/>
  <path d="M295.384 89.0626C298.922 84.0646 301.348 78.8871 300.112 72.6239C299.637 70.2147 297.436 67.5466 297.07 66.6906C296.612 65.6133 296.475 64.5444 296.054 63.4713L296.562 63.3001C305.713 69.1207 306.038 84.9623 295.38 89.0585L295.384 89.0626Z" fill="#F3B56F"/>
  <path d="M284.91 93.1295C280.745 95.9897 275.98 97.1421 271.227 98.5534C270.458 98.0023 272.197 91.9353 272.409 90.7579C272.53 90.0856 272.634 89.3967 272.746 88.7244C275.672 88.1607 272.73 91.476 276.292 94.1483C279.671 94.2778 284.848 91.5971 284.906 93.1295H284.91Z" fill="#F3B56F"/>
  <path d="M297.074 70.7617C296.966 69.5132 296.645 68.2105 296.737 67.033C300.241 72.5905 300.52 77.0207 298.089 83.1335C294.04 93.3132 297.265 79.9936 297.415 77.3714C297.544 75.1292 297.27 72.983 297.078 70.7617H297.074Z" fill="#F3B56F"/>
  <path d="M303.491 84.9958C302.242 85.05 301.801 86.5657 301.127 87.3674C300.187 88.4864 299.267 89.5386 298.085 90.4197C294.273 89.4468 294.074 92.5575 291.327 94.6577C295.734 97.3217 300.207 100.683 303.15 104.996C314.015 120.921 308.58 135.69 296.391 148.55C290.561 154.705 302.076 140.721 303.487 138.383C310.124 127.356 309.654 116.654 302.471 106.015C299.371 101.422 295.846 98.7455 291.493 95.5095C285.126 99.0461 278.597 102.103 271.731 104.153C276.092 106.725 280.828 112.62 282.879 117.201C288.539 129.84 285.992 145.899 274.939 154.822C284.823 143.406 288.402 131.076 281.527 116.859C279.038 111.71 272.355 103.894 270.212 104.32C269.388 104.483 268.289 108.165 267.341 109.063C267.399 108.282 268.939 104.562 269.367 103.639C277.869 99.9814 290.844 97.7684 294.365 88.048C294.531 91.1044 294.997 89.213 295.38 89.0668C306.038 84.9707 305.713 69.1291 296.562 63.3085L296.054 63.4797C296.475 64.5528 296.608 65.6217 297.07 66.699C296.783 66.6656 296.754 66.7783 296.733 67.0372C296.641 68.2105 296.962 69.5174 297.07 70.7658L295.717 72.1229C295.979 67.5424 295.359 63.3878 293.354 59.2416C289.005 50.2561 278.414 44.5273 268.864 42.9741C269.683 44.8196 270.691 46.4856 271.398 48.398C276.487 62.1394 275.139 74.6365 272.75 88.7328C272.638 89.405 272.534 90.094 272.413 90.7662L271.398 90.428C273.254 80.4487 274.249 63.8179 271.735 54.1601C267.495 37.8508 253.379 24.552 235.76 26.3683C239.022 30.0594 241.981 28.1471 245.219 28.74C257.927 31.0782 266.25 43.2204 269.371 55.1789C272.671 67.8221 272.567 100.908 261.939 110.086C258.423 113.126 251.427 116.42 246.908 117.205C237.578 118.825 249.184 115.848 251.635 114.833C256.587 112.779 263.212 108.462 265.655 103.48C269.355 95.9354 270.524 76.2649 270.046 67.7219C269.093 50.6611 259.671 28.2181 239.476 29.0824L239.305 29.93C248.107 37.7422 253.982 52.6486 256.704 63.9933C248.951 45.0785 243.924 23.6919 218.868 26.3725C219.796 28.4978 221.781 29.9717 223.092 31.7964C227.387 37.7673 231.519 44.0722 234.241 50.945C238.86 62.6195 243.645 88.0647 244.037 100.599C243.333 100.679 243.983 101.977 243.529 102.295C242.888 102.746 243.283 100.921 242.347 101.276C242.218 92.7203 240.504 84.2233 238.968 75.8557C235.776 58.4441 233.504 50.4147 222.922 35.1827C230.325 49.9095 234.823 60.1519 237.953 76.5321C240.137 87.9687 243.516 109.43 239.305 119.915C233.887 133.406 221.865 137.026 212.955 142.287C216.596 135.327 217.583 115.522 217.008 107.376C216.184 95.6932 212.876 86.2359 207.886 75.8557C205.573 71.0372 202.939 66.152 200.117 61.6216H201.47C218.423 90.641 221.91 105.476 215.489 139.92C223.708 135.61 232.093 130.546 236.6 122.124C241.323 113.305 240.4 108.967 239.642 99.5848C238.685 87.7474 235.814 68.6238 231.536 57.7259C227.42 47.2456 214.803 26.6272 206.368 19.2576C201.028 14.5894 182.498 3.18209 175.964 2.30943C162.951 0.576617 140.942 6.21764 129.856 13.8337C125.149 17.0654 119.781 21.7628 118.37 27.5625C117.517 31.0741 117.717 34.9823 119.386 29.4248C119.186 30.2181 119.331 31.5835 118.711 32.3058C119.331 33.1827 119.386 32.4269 119.727 32.477C121.312 32.6983 120.517 32.3601 121.416 32.1388C123.743 31.5626 123.659 31.1576 123.78 31.12C123.984 31.0615 123.834 31.3037 124.454 31.12C138.628 26.9153 144.3 25.5416 159.248 30.1012C144.662 27.1992 139.057 27.2702 125.465 32.4728C123.06 33.3914 120.555 34.072 118.37 35.5251C103.809 44.0513 90.9839 46.2184 79.8604 60.2688C78.8534 61.5423 76.3482 64.5444 75.8072 65.6927L73.1065 63.6592C73.8555 63.2751 74.6171 63.2876 75.1331 62.4734C83.9927 44.8614 114.492 36.9113 115.332 34.3393C114.234 15.4495 135.478 5.72911 150.971 2.30943C166.118 -1.0351 175.819 -0.976643 190.496 4.00466C203.742 8.50162 208.265 13.5915 216.846 24.3433C221.952 24.3725 227.066 24.0092 232.048 25.3621C235.356 23.099 245.323 24.3098 249.276 25.3621C261.265 28.5563 266.271 39.8133 267.857 40.615C279.484 41.9887 291.685 48.5901 295.389 60.4441C305.234 65.868 307.636 74.7283 303.495 85.0166L303.491 84.9958Z" fill="#3A2E24"/>
  <path d="M271.739 54.1517C274.249 63.8095 273.258 80.4403 271.402 90.4197C270.266 96.5283 267.794 106.47 263.633 111.096C263.52 111.222 262.792 111.61 262.617 111.773L261.943 110.078C272.572 100.9 272.676 67.8096 269.376 55.1706C270.208 53.3918 270.025 53.9179 271.739 54.1517Z" fill="#F3B56F"/>
  <path d="M271.739 54.1517C270.021 53.9179 270.204 53.3918 269.376 55.1706C266.254 43.2121 257.932 31.0699 245.223 28.7316C241.985 28.1346 239.026 30.0511 235.764 26.36C253.383 24.5479 267.499 37.8466 271.739 54.1517Z" fill="#F8F8F7"/>
  <path d="M184.753 4.66438C202.069 8.20098 215.781 22.7482 222.755 38.3894C212.847 21.8839 202.019 12.865 184.753 4.66438Z" fill="#F8F8F7"/>
  <path d="M238.972 75.8432C237.894 75.1 238.673 76.1814 237.957 76.5196C234.827 60.1393 230.329 49.897 222.926 35.1702C233.508 50.4022 235.78 58.4316 238.972 75.8432Z" fill="#F4EEE3"/>
  <path d="M293.358 59.2374C291.115 58.4399 288.264 53.9764 284.744 51.4419C281.24 48.9157 275.231 45.5462 271.402 48.3896C270.695 46.4815 269.688 44.8113 268.868 42.9657C278.422 44.5232 289.013 50.2519 293.358 59.2333V59.2374Z" fill="#F8F8F7"/>
  <path d="M238.972 75.8432C240.508 84.2108 242.222 92.7078 242.351 101.263C242.447 107.564 241.935 113.919 239.988 119.907H239.313C243.525 109.418 240.146 87.9562 237.961 76.5238C238.677 76.1856 237.894 75.1041 238.976 75.8474L238.972 75.8432Z" fill="#E0C59D"/>
  <path d="M217.012 107.368H216.338C215.664 98.8875 213.434 91.2088 209.58 83.6429C209.73 81.8642 210.392 84.7828 210.933 85.5052C212.668 87.8476 209.31 81.1126 208.906 80.0813C208.69 79.5301 207.683 76.2607 207.891 75.8432C212.876 86.2233 216.184 95.6807 217.012 107.364V107.368Z" fill="#F0CE92"/>
  <path d="M83.9178 60.2521C80.5096 62.6446 76.2192 66.9453 75.1331 71.0999C74.1551 72.7533 73.6308 75.0707 73.7806 72.6239C73.8722 71.1583 75.1206 67.1249 75.8072 65.676C76.3482 64.5319 78.8534 61.5256 79.8604 60.2521C81.0007 61.1832 81.9828 59.7051 83.2395 58.8951L83.9137 60.2521H83.9178Z" fill="#F1E0C9"/>
  <path d="M123.443 26.6982C122.149 28.2723 121.183 30.8611 119.727 32.4603C119.39 32.4144 119.336 33.166 118.711 32.2891C119.331 31.5668 119.186 30.2014 119.386 29.4081C120.039 26.8151 120.63 26.7608 121.075 26.0176C121.075 27.4164 122.032 25.4038 122.091 25.3412C122.494 25.4372 122.69 26.5521 123.443 26.6982Z" fill="#D19551"/>
  <path d="M154.858 156.513C142.402 160.2 131.004 157.106 127.833 157.189C130.06 152.325 131.15 150.529 131.549 144.989C132.003 138.738 130.284 132.45 127.833 126.688C127.321 123.903 130.184 129.03 130.534 129.907C134.92 140.913 130.892 151.348 131.549 152.279C140.58 152.692 149.356 154.521 157.055 148.379C164.092 142.763 164.716 134.988 163.305 126.688C166.122 126.988 162.752 116.124 161.616 112.959C161.195 111.79 158.844 106.587 158.237 105.501C152.906 95.9521 131.029 77.0749 120.909 72.4527C116.219 70.3107 111.279 70.6907 112.632 68.0476C129.577 70.1312 146.352 84.5114 156.884 97.3676C165.199 107.518 169.094 114.775 170.396 128.212C171.799 142.659 170.051 152.016 154.858 156.513Z" fill="#D19551"/>
  <path d="M107.904 65.3378C119.086 66.0142 132.748 72.9746 141.687 79.5719C142.477 80.1564 144.196 82.123 145.74 82.9623C144.704 83.6095 146.035 83.5928 146.077 83.6387C148.282 86.1774 152.66 91.5095 153.846 91.0961C158.557 96.5116 164.308 103.23 167.358 109.739C171.711 119.026 171.865 129.168 171.919 139.226C175.756 128.913 172.469 118.838 168.033 109.401C166.663 106.487 165.194 103.739 163.642 100.929C172.094 114.278 177.516 124.759 172.764 141.093C170.916 147.435 167.1 153.544 160.604 155.836C158.844 156.458 156.938 156.922 154.862 156.513C170.055 152.016 171.803 142.659 170.4 128.212C169.098 114.775 165.203 107.518 156.888 97.3676C146.356 84.5114 129.581 70.1353 112.636 68.0476C98.8823 66.3566 86.1026 75.1668 76.8268 84.6575C72.8817 86.9499 67.0183 88.6618 63.3146 90.7579L62.6405 88.7244C66.2484 86.7661 69.7815 84.8329 73.7889 83.6387C76.4772 83.0291 76.0236 82.027 76.1526 81.9435C76.3066 81.8475 76.1443 82.432 79.1946 79.9101C80.7718 79.9393 84.438 76.4695 87.1346 74.8244C94.209 70.507 101.808 66.3065 110.276 66.1812C93.7804 64.1979 87.4217 73.0957 79.1988 79.9101C77.5467 78.0144 89.0613 69.818 91.192 68.724C96.7974 65.8513 101.608 64.9536 107.913 65.3336L107.904 65.3378Z" fill="#3A2E24"/>
  <path d="M72.7694 129.059C76.7727 133.026 78.458 136.93 80.2017 142.279C75.8322 154.834 74.7752 129.176 47.9424 136.517C45.9033 137.076 41.5504 139.857 41.6919 138.212C49.5362 129.255 61.1549 122.22 72.7694 129.059Z" fill="#F8F8F7"/>
  <path d="M102.836 57.5422L104.188 58.561C99.5648 61.4629 93.152 62.2855 89.6606 64.9995C83.3436 67.6718 77.7423 73.7429 75.8114 80.4195L76.3191 80.5907C83.5766 66.0726 93.0688 62.1686 108.915 63.9807C108.666 64.7532 109.665 64.7323 109.59 64.8284C109.24 65.2835 107.975 64.6321 107.9 65.3378C101.596 64.9578 96.7808 65.8513 91.1795 68.7282C89.053 69.818 77.5342 78.0186 79.1863 79.9142C76.1401 82.4362 76.3024 81.8516 76.1443 81.9477C73.5434 79.4758 74.2717 74.3985 75.1289 71.0999C78.7452 64.9828 83.6307 60.6487 90.3306 58.2186C94.492 57.6925 98.6326 57.4796 102.827 57.5422H102.836Z" fill="#F3B56F"/>
  <path d="M209.243 67.7094C215.664 82.123 221.835 97.259 221.74 113.297C218.831 123.389 218.003 152.212 219.039 121.769C224.994 103.034 214.158 78.8578 205.527 61.9473C204.216 59.3836 202.968 56.9618 201.474 54.4899C198.066 48.8531 194.004 43.8217 189.651 38.8988C192.91 41.8258 196.251 45.1328 198.773 48.7278C198.827 48.8364 198.84 49.7842 199.618 50.4231C200.155 49.6924 198.919 48.9366 198.773 48.7278C194.008 39.2663 167.442 18.364 157.055 15.5122C148.22 13.0863 135.973 12.5977 128.341 18.5644C127.301 19.3786 123.422 23.8088 122.091 25.3454C122.032 25.3328 121.075 25.9633 121.075 26.0218C123.905 21.2785 128.245 17.6375 132.898 14.8358C136.655 14.5059 142.39 11.3785 155.361 14.1593C165.348 16.2972 178.103 26.2514 185.764 33.1409C198.939 44.9908 202.144 51.7843 209.243 67.7136V67.7094Z" fill="#3A2E24"/>
  <path d="M225.119 124.992C225.423 113.222 225.498 106.959 222.755 95.3342C220.487 85.7139 216.288 77.004 212.285 68.0476C206.426 54.9493 202.015 44.0889 191.848 33.8132C177.325 19.1323 156.422 4.53077 134.928 11.9505C157.883 -0.074748 191.977 27.5124 202.826 46.185C210.591 59.5464 223.754 90.7704 225.46 105.84C226.492 114.98 225.007 120.946 225.123 124.988L225.119 124.992Z" fill="#292421"/>
  <path d="M201.474 54.4899C202.968 56.9618 204.216 59.3794 205.527 61.9473C204.033 61.2834 203.542 62.0517 203.33 61.9473C201.507 61.0496 200.109 54.4273 201.474 54.4899Z" fill="#F0CE92"/>
  <path d="M189.651 38.8988C189.53 38.7903 186.975 37.713 187.454 36.5272C188.278 37.2412 188.935 38.0888 189.651 38.8988Z" fill="#3A2E24"/>
  <path d="M151.141 39.5753C162.706 43.9678 176.085 51.4168 185.09 59.9139C186.543 61.2834 192.868 67.8222 192.352 68.7282C186.613 67.889 174.782 71.3462 174.112 73.3045C172.577 77.7722 190.238 93.2506 180.026 92.1149C170.375 82.9581 184.066 101.618 184.25 104.487C184.32 105.622 182.348 109.547 181.208 109.739C180.891 108.913 176.393 102.199 175.128 100.925C162.677 75.3755 133.301 53.5213 104.359 54.1517C97.4632 54.3021 89.619 56.2562 83.922 60.2521L83.2478 58.8951C87.1471 56.3856 90.3139 52.8782 94.2257 50.4231C99.5814 47.0618 110.193 43.4 118.041 36.8654C129.023 36.5606 140.23 38.0638 151.146 39.5753H151.141Z" fill="#F8F8F7"/>
  <path d="M118.374 56.8616C118.374 57.0871 118.279 57.4462 118.545 57.538C128.254 60.9744 127.101 59.7761 137.292 65.3336C135.961 65.3336 136.93 66.0559 137.292 66.6906C126.797 60.6529 114.85 57.7176 102.836 57.538C98.6368 57.4754 94.5003 57.6884 90.3389 58.2145C99.7146 54.8115 108.67 55.1664 118.379 56.8574L118.374 56.8616Z" fill="#F4EEE3"/>
  <path d="M197.758 152.784C189.177 154.926 180.33 154.45 171.578 154.479C172.327 153.256 173.322 152.321 174.112 151.089C175.061 152.584 182.672 152.275 185.769 152.108C194.978 151.611 202.202 147.987 197.762 152.784H197.758Z" fill="#F3B56F"/>
  <path d="M216.338 108.044C216.372 108.812 216.18 109.719 216.509 110.416C217.083 108.211 216.363 108.161 216.338 108.044C216.33 107.819 216.355 107.589 216.338 107.368H217.012C217.587 115.514 216.6 135.318 212.959 142.279C211.569 143.097 209.78 145.31 208.061 146.346C204.141 148.709 197.791 149.176 200.121 152.108C199.364 152.35 198.523 152.596 197.758 152.784C202.202 147.987 194.974 151.611 185.764 152.108C182.668 152.275 175.057 152.588 174.108 151.089C175.298 149.235 176.888 146.934 177.824 144.989C178.682 144.149 179.539 146.984 181.033 147.36C185.178 148.408 203.301 146.053 209.576 136.684C222.838 116.879 208.561 87.2588 196.401 70.0811C192.818 65.0204 189.651 61.2625 184.915 57.1998V56.8616C184.666 53.1705 182.514 53.062 183.563 51.7759C191.303 58.2019 200.042 70.031 205.182 78.7201C211.02 88.5866 214.145 96.7246 216.33 108.04L216.338 108.044Z" fill="#D19551"/>
  <path d="M192.352 68.7282C195.494 69.1875 194.774 70.6615 196.405 70.0853C208.561 87.263 222.838 116.884 209.58 136.688C203.305 146.057 185.182 148.412 181.037 147.364C179.543 146.984 178.682 144.153 177.829 144.993C180.467 139.515 181.307 136.554 181.545 130.416C182.685 130.901 182.793 128.583 182.897 127.535C183.276 123.623 182.589 113.347 181.208 109.739C182.348 109.547 184.32 105.618 184.25 104.487C184.071 101.618 170.375 82.9581 180.026 92.1149C190.238 93.2506 172.581 77.7722 174.112 73.3045C174.787 71.3462 186.617 67.889 192.352 68.7282Z" fill="#F3B56F"/>
  <path d="M181.208 109.739C182.589 113.347 183.276 123.623 182.897 127.535C182.797 128.583 182.689 130.901 181.545 130.416C181.952 119.902 179.693 110.295 175.128 100.929C176.393 102.203 180.891 108.917 181.208 109.744V109.739Z" fill="#F3B56F"/>
  <path d="M209.58 83.6387C213.429 91.2088 215.66 98.8874 216.338 107.364C216.355 107.589 216.33 107.819 216.338 108.04C214.154 96.7246 211.028 88.5866 205.19 78.7201C200.046 70.031 191.312 58.2019 183.571 51.7759C182.427 50.8239 180.209 48.7529 179.685 48.3855C179.381 48.1725 179.04 48.7445 179.01 48.7237C178.474 48.3562 178.523 47.709 177.995 47.3666C168.852 41.4667 156.934 37.5084 146.243 35.8424C155.894 36.1347 140.834 33.9259 133.747 33.4708C132.461 33.3873 132.011 33.8382 131.383 33.809C131.321 33.809 130.43 33.1326 130.368 33.1326C128.703 33.0825 119.893 34.3142 125.47 32.7943C129.802 31.6127 147.213 34.0052 152.323 35.166C159.905 36.8863 171.765 41.7966 178.336 46.0138C189.901 53.4419 203.351 71.3838 209.584 83.6346L209.58 83.6387Z" fill="#4D3522"/>
  <path d="M155.869 39.9177C157.825 40.8613 159.926 41.5043 161.949 42.2893C162.073 42.3436 162.048 42.5357 164.312 43.6463C164.549 43.7632 164.749 43.8635 164.986 43.9845L172.419 48.0514C176.11 51.0452 180.255 53.4753 183.904 56.5234C184.841 57.3084 184.87 57.1622 184.92 57.1998C189.655 61.2625 192.822 65.0204 196.405 70.0811C194.774 70.6573 195.494 69.1833 192.352 68.7241C192.868 67.818 186.543 61.2792 185.09 59.9097C176.085 51.4127 162.706 43.9637 151.141 39.5711C152.032 38.9114 154.658 39.6463 155.869 39.9093V39.9177Z" fill="#F3B56F"/>
  <path d="M216.338 108.044C216.359 108.161 217.083 108.211 216.509 110.416C216.18 109.719 216.372 108.812 216.338 108.044Z" fill="#4D3522"/>
  <path d="M125.47 32.4603V32.7985C119.893 34.3226 128.703 33.0866 130.368 33.1367C130.43 33.1367 131.321 33.8132 131.383 33.8132C132.011 33.8424 132.461 33.3914 133.747 33.4749C140.838 33.9301 155.894 36.1389 146.243 35.8466C156.938 37.5126 168.852 41.4709 177.995 47.3708C178.523 47.709 178.469 48.3604 179.01 48.7278C179.044 48.7487 179.381 48.1767 179.685 48.3896C180.209 48.7571 182.427 50.8281 183.571 51.7801C182.518 53.0661 184.67 53.1705 184.924 56.8658L183.908 56.5276C180.263 53.4795 176.114 51.0452 172.423 48.0556C170.342 46.018 167.475 45.2664 164.991 43.9887C164.753 43.8676 164.554 43.7674 164.316 43.6505C163.867 42.7194 162.773 42.615 161.953 42.2935C159.41 41.1828 159.639 40.736 155.873 39.9218C154.658 39.6588 152.036 38.9239 151.146 39.5836C140.23 38.0721 129.019 36.5648 118.041 36.8738C118.67 36.3518 118.524 36.1055 119.731 36.0261L118.379 35.5167C120.563 34.0637 123.068 33.3873 125.474 32.4645L125.47 32.4603Z" fill="#F3B56F"/>
  <path d="M184.924 56.8616V57.1998C184.878 57.1581 184.849 57.3042 183.908 56.5234L184.924 56.8616Z" fill="#8B4E24"/>
  <path d="M172.423 48.0514L164.991 43.9845C167.475 45.2622 170.342 46.0138 172.423 48.0514Z" fill="#A96A31"/>
  <path d="M161.953 42.2893C159.93 41.5043 157.829 40.8571 155.873 39.9177C159.639 40.7319 159.414 41.1786 161.953 42.2893Z" fill="#A96A31"/>
  <path d="M164.316 43.6463C162.053 42.5357 162.078 42.3436 161.953 42.2893C162.773 42.6066 163.867 42.7152 164.316 43.6463Z" fill="#A96A31"/>
  <path d="M144.217 35.1702C144.462 35.0616 145.736 35.1535 145.736 35.3414C145.736 35.7255 143.489 35.4917 144.217 35.1702Z" fill="#754E27"/>
  <path d="M166.68 24.3265C185.382 35.5752 191.024 43.7257 201.474 61.6091H200.121C198.203 58.5276 196.343 55.2749 194.041 52.4565C182.352 31.0657 164.5 26.2431 141.512 25.003C136.56 25.5541 132.523 25.575 128 28.0552C127.18 28.5062 125.074 30.2348 124.454 31.1075C123.834 31.2912 123.984 31.049 123.78 31.1075C134.791 18.9193 152.107 20.41 166.68 24.3265Z" fill="#3A2E24"/>
  <path d="M147.255 22.2931C155.656 22.1971 165.398 24.3265 172.082 29.5793C171.653 31.1367 163.276 24.1261 140.496 24.3266C139.76 24.3349 137.675 25.4664 136.61 24.1554C136.685 23.2535 146.002 22.3056 147.25 22.2931H147.255Z" fill="#D19551"/>
  <path d="M135.432 24.6648C135.682 24.598 136.947 24.6147 136.951 24.836C136.968 25.3454 133.472 25.1867 135.432 24.6648Z" fill="#A96A31"/>
  <path d="M121.075 26.0176C121.075 25.955 122.028 25.3245 122.091 25.3412C122.032 25.408 121.079 27.4164 121.075 26.0176Z" fill="#F3B56F"/>
  <path d="M112.632 68.0476C111.279 70.6949 116.215 70.3107 120.909 72.4527C131.029 77.0749 152.902 95.9521 158.237 105.501C158.84 106.587 161.195 111.785 161.616 112.959C162.752 116.12 166.118 126.988 163.305 126.688C159.364 103.547 137.841 86.8538 117.363 78.5572C104.509 73.3504 100.751 73.2127 86.4521 77.5384C84.2216 81.1878 78.87 84.6951 80.5387 85.334C79.6607 85.6221 77.605 86.0354 76.8226 86.3528V84.6575C86.0984 75.1668 98.8781 66.3566 112.632 68.0476Z" fill="#D19551"/>
  <path d="M163.638 100.925C165.19 103.739 166.659 106.483 168.028 109.397L167.354 109.735C164.304 103.226 158.553 96.5075 153.842 91.0919C152.677 89.7516 151.57 88.2526 150.463 86.8538L145.736 82.954C144.192 82.1147 142.473 80.1481 141.682 79.5635C142.968 79.0458 143.36 79.3422 144.554 79.9017C151.861 83.3423 159.389 94.2026 163.638 100.917V100.925Z" fill="#F3B56F"/>
  <path d="M79.1905 79.9101C87.4134 73.0999 93.7721 64.1979 110.268 66.1812C101.804 66.3065 94.2007 70.507 87.1263 74.8244C84.4297 76.4695 80.7635 79.9351 79.1863 79.9101H79.1905Z" fill="#D19551"/>
  <path d="M167.354 109.739L168.028 109.401C172.46 118.838 175.748 128.913 171.915 139.226C171.865 129.164 171.707 119.021 167.354 109.739Z" fill="#D19551"/>
  <path d="M153.842 91.0961C152.656 91.5095 148.278 86.1816 146.073 83.6387L145.736 82.9623L150.463 86.8622C151.57 88.2609 152.677 89.7599 153.842 91.1003V91.0961Z" fill="#A96A31"/>
  <path d="M146.073 83.6387C146.031 83.5886 144.699 83.6095 145.736 82.9623L146.073 83.6387Z" fill="#CCBA8D"/>
  <path d="M108.915 63.9807C93.0646 62.1644 83.5724 66.0685 76.3191 80.5907L75.8114 80.4195C77.7423 73.7387 83.3436 67.6718 89.6606 64.9995C97.0762 61.8596 107.833 62.0058 115.503 64.3231C126.235 67.5633 112.253 64.9578 108.915 63.9849V63.9807Z" fill="#3A2E24"/>
  <path d="M198.773 48.7278C198.919 48.9366 200.155 49.6882 199.618 50.4231C198.84 49.7842 198.827 48.8364 198.773 48.7278Z" fill="#F3B56F"/>
  <path d="M160.6 155.836C167.1 153.544 170.916 147.435 172.76 141.093C177.512 124.759 172.094 114.278 163.638 100.929C159.389 94.2151 151.857 83.3548 144.554 79.9142C143.36 79.3547 142.968 79.0583 141.682 79.576C132.744 72.9747 119.082 66.0184 107.9 65.3419C107.975 64.6405 109.24 65.2877 109.59 64.8325C109.66 64.7407 108.666 64.7574 108.915 63.9849C112.253 64.9578 126.235 67.5675 115.503 64.3231C107.833 62.0058 97.0762 61.8638 89.6606 64.9995C93.1479 62.2855 99.5606 61.4629 104.188 58.561C134.367 58.2854 163.201 84.0772 173.609 111.435C172.165 103.451 163.638 89.6347 158.241 83.6429C157.621 78.9497 153.888 76.6031 150.471 73.8139C146.039 70.1938 142.286 68.0601 137.296 65.3419C127.105 59.7844 128.258 60.9828 118.549 57.5464C118.287 57.4545 118.383 57.0913 118.379 56.87C150.405 62.4567 182.964 98.9167 180.533 132.287C180.113 138.061 177.92 143.377 174.791 148.216C170.375 155.043 169.214 155.878 160.604 155.84L160.6 155.836Z" fill="#F3B56F"/>
  <path d="M137.292 66.6906C141.241 68.9621 145.236 72.2732 148.778 75.1626C151.716 77.5635 155.748 80.8746 158.237 83.6346C163.638 89.6263 172.161 103.443 173.605 111.426C163.201 84.0688 134.363 58.2771 104.184 58.5527L102.831 57.5339C114.845 57.7134 126.793 60.6487 137.288 66.6864L137.292 66.6906Z" fill="#3A2E24"/>
  <path d="M137.292 65.3378C142.282 68.056 146.035 70.1896 150.467 73.8097L148.778 75.1668C145.24 72.2774 141.241 68.9621 137.292 66.6948C136.93 66.0643 135.961 65.3378 137.292 65.3378Z" fill="#F0CE92"/>
  <path d="M158.237 83.6387C155.748 80.8788 151.716 77.5676 148.778 75.1668L150.467 73.8097C153.884 76.5989 157.617 78.9455 158.237 83.6387Z" fill="#F0CE92"/>
  <path d="M166.851 153.122C167.109 153.122 167.109 154.141 166.851 154.141C166.593 154.141 166.593 153.122 166.851 153.122Z" fill="#D19551"/>
  <path d="M117.359 78.5572C96.2065 76.5948 95.1703 80.5614 80.5387 85.3381C78.8659 84.6993 84.2216 81.1919 86.4521 77.5426C100.747 73.2126 104.509 73.3504 117.363 78.5614L117.359 78.5572Z" fill="#F3B56F"/>
  <path d="M111.957 102.62C107.501 95.0126 94.5461 89.5804 86.2857 88.0438C96.9888 81.1961 112.199 90.6117 111.957 102.62Z" fill="#F8F8F7"/>
  <path d="M117.359 78.5572C137.837 86.8538 159.36 103.547 163.301 126.688C164.716 134.988 164.092 142.763 157.051 148.379C149.352 154.521 140.576 152.692 131.545 152.279C130.888 151.352 134.916 140.913 130.53 129.907C130.18 129.03 127.317 123.898 127.829 126.688C122.586 114.349 111.816 103.915 101.142 96.1818C99.7229 95.1546 98.1624 94.2778 96.7516 93.3007C97.3925 91.7182 111.554 102.691 112.461 104.316C112.898 104.169 112.111 102.888 111.953 102.62C112.19 90.6159 96.9847 81.2003 86.2815 88.0438C83.3019 87.4885 79.0323 86.8789 76.1485 87.3674C76.0486 86.7954 76.3316 86.549 76.8226 86.3486C77.605 86.0313 79.6607 85.6179 80.5388 85.3298C95.1703 80.5531 96.2065 76.5864 117.359 78.5489L117.359 78.5572Z" fill="#F3B56F"/>
  <path d="M136.784 101.944C139.269 100.9 153.788 126.462 149.622 127.364C149.206 127.456 148.37 126.508 148.104 126.178C147.292 125.189 136.348 104.75 136.281 103.468C136.256 102.95 136.189 102.194 136.789 101.944H136.784Z" fill="#F8F8F7"/>
  <path d="M112.969 134.821C113.318 136.049 114.4 138.153 112.969 138.888C111.887 136.241 109.602 132.621 107.9 130.245C105.736 127.222 91.45 111.163 96.4146 118.55L95.7404 119.907C88.4205 110.253 76.0195 102.583 63.6476 102.959C63.71 101.814 65.0749 103.092 64.6629 99.9063C73.6308 100.086 86.2607 104.771 93.5432 110.073C100.056 114.817 110.792 127.13 112.969 134.817V134.821Z" fill="#F8F8F7"/>
  <path d="M64.663 99.9104C65.0749 103.096 63.7141 101.814 63.6476 102.963C61.9913 103.013 58.3917 103.501 56.8894 103.981L56.2153 101.272C59.0159 100.491 61.6709 99.8562 64.6588 99.9146L64.663 99.9104Z" fill="#F1E0C9"/>
  <path d="M62.6363 88.7244L63.3105 90.7579C58.9493 93.2214 55.2332 96.6411 51.825 100.249C49.8982 102.286 49.6527 102.261 47.7718 104.992C44.2179 110.157 42.5034 113.669 43.0444 120.245C42.1788 123.172 42.9362 120.583 41.3549 121.94C38.729 106.737 50.3144 95.4051 62.6363 88.7244Z" fill="#3A2E24"/>
  <path d="M100.135 97.1964C106.593 103.368 120.9 116.988 123.443 125.159C124.379 128.17 123.913 129.377 124.117 130.75L122.09 133.803C121.154 131.802 114.126 118.9 112.802 118.888L112.295 119.397C114.234 121.723 115.57 124.395 117.022 127.022C114.28 128.42 119.423 134.007 117.696 139.055C116.868 139.736 116.402 137.105 115.84 136.512C115.345 135.995 115.253 138.107 113.306 134.141C112.211 131.911 111.562 129.164 110.264 126.855C100.563 109.585 73.198 92.7621 53.8516 101.602C52.4409 100.654 56.1653 97.7392 56.3859 97.8728C57.1017 98.3112 55.7825 99.5973 56.723 99.5681C57.5344 99.543 64.2801 93.6306 70.5722 91.0961C73.7473 89.8184 79.2404 89.6221 75.1331 88.7244C84.0884 87.4467 93.0272 92.2903 100.131 97.1964H100.135Z" fill="#F8F8F7"/>
  <path d="M113.306 134.141L112.969 134.817C110.796 127.13 100.06 114.817 93.5432 110.073C86.2607 104.771 73.6308 100.086 64.6629 99.9063C61.675 99.8478 59.0201 100.482 56.2194 101.263C55.2873 101.522 54.4134 101.923 53.5187 102.282C52.9361 102.516 52.4367 102.75 51.8291 102.959C51.9332 102.896 51.7709 102.553 53.8557 101.602C73.2022 92.7579 100.572 109.581 110.268 126.855C111.566 129.168 112.211 131.911 113.31 134.141H113.306Z" fill="#292421"/>
  <path d="M76.8226 84.6575V86.3528C76.3316 86.5532 76.0486 86.7995 76.1485 87.3716C73.4893 87.8225 73.5725 88.5198 72.0952 89.0668C64.6463 91.8268 58.4167 95.8644 51.825 100.253C55.2332 96.6452 58.9493 93.2297 63.3105 90.762C67.0141 88.666 72.8776 86.954 76.8226 84.6617V84.6575Z" fill="#F8F8F7"/>
  <path d="M86.2815 88.048C94.5461 89.5846 107.501 95.0168 111.953 102.624C112.111 102.892 112.898 104.174 112.461 104.32C111.554 102.695 97.3925 91.7224 96.7516 93.3049C98.1624 94.2819 99.7229 95.1588 101.142 96.186C100.489 96.8832 101.021 97.0377 102.494 98.5576C101.695 98.4282 100.822 97.6808 100.131 97.2006C93.0272 92.2903 84.0884 87.4509 75.1331 88.7286C73.5101 88.9582 72.2201 89.8309 72.0911 89.0668C73.5684 88.5198 73.4852 87.8225 76.1443 87.3716C79.0282 86.883 83.2978 87.4968 86.2774 88.048H86.2815Z" fill="#3A2E24"/>
  <path d="M127.833 126.688C130.284 132.45 131.999 138.738 131.549 144.989C130.455 145.277 131.067 143.59 130.705 143.632C130.313 143.677 130.85 144.93 130.197 144.989C130.301 142.558 129.706 138.308 129.182 135.836C127.276 126.796 119.028 113.848 112.627 107.197C109.685 104.14 105.133 101.28 102.494 98.5534C101.021 97.0336 100.489 96.8791 101.142 96.1818C111.816 103.915 122.586 114.345 127.829 126.688H127.833Z" fill="#3A2E24"/>
  <path d="M130.368 138.55C130.63 138.55 130.63 140.583 130.368 140.583C130.105 140.583 130.105 138.55 130.368 138.55Z" fill="#9C9269"/>
  <path d="M130.705 141.26C130.963 141.26 130.963 142.617 130.705 142.617C130.447 142.617 130.447 141.26 130.705 141.26Z" fill="#977855"/>
  <path d="M75.1372 88.7244C79.2446 89.6221 73.7515 89.8184 70.5763 91.0961C64.2801 93.6306 57.5386 99.5472 56.7271 99.568C55.7866 99.5973 57.1058 98.3112 56.39 97.8728C56.1695 97.7392 52.445 100.654 53.8557 101.602C51.7709 102.553 51.9332 102.896 51.8291 102.959C51.646 103.021 51.0551 102.804 50.8138 103.635C48.9869 104.812 49.0576 103.927 48.9578 103.973C47.7634 104.52 50.3768 105.815 47.7759 104.992C49.6569 102.261 49.9024 102.286 51.8291 100.249C58.4167 95.8603 64.6463 91.8268 72.0994 89.0626C72.2242 89.8267 73.5143 88.9541 75.1414 88.7244H75.1372Z" fill="#E0C59D"/>
  <path d="M51.825 102.959C51.5836 103.1 51.1259 103.435 50.8096 103.635C51.0468 102.804 51.6419 103.021 51.825 102.959Z" fill="#292421"/>
  <path d="M90.676 131.431C91.346 132.203 92.0492 133.022 92.7026 133.803C92.636 134.876 97.6796 140.571 97.7712 151.427C96.864 151.193 96.8765 154.684 96.0816 156.342C92.919 162.951 85.5699 164.004 83.7514 164.985C83.1729 165.298 83.0273 167.54 82.2325 166.004C83.277 158.893 84.5254 155.043 82.9066 146.855C82.1118 142.834 77.7839 133.043 75.1372 129.907C74.3008 128.917 68.4873 124.203 73.9554 128.045C75.104 128.855 75.5201 130.028 75.6449 130.078C78.7951 131.339 75.3536 127.276 71.7582 125.335C71.6749 124.642 71.8123 124.65 72.4323 124.658C76.8268 128.216 81.7997 131.168 84.7626 136.183C84.721 132.571 76.4855 126.349 73.4477 124.996C72.5031 122.182 78.3748 122.6 82.0618 125.673C83.8429 123.118 87.3052 130.4 90.5053 132.111L90.676 131.435V131.431Z" fill="#F3B56F"/>
  <path d="M62.2993 103.977C63.5144 106.027 62.3326 106.303 60.9468 107.706C55.5744 108.153 56.544 109.38 61.4545 108.044C69.8106 108.362 71.9621 109.518 78.5121 112.788C79.5608 114.808 79.2404 114.675 78.1751 116.516C72.5363 113.643 63.5851 111 57.5677 113.297C65.3413 112.061 72.2742 114.47 78.8492 118.211C78.4248 118.053 78.8201 119.184 78.8492 119.23C79.3236 119.936 85.6864 125.673 90.6718 131.431L90.5012 132.107C87.3011 130.391 83.8388 123.109 82.0577 125.669C78.3707 122.596 72.4989 122.178 73.4435 124.992C73.0357 124.813 72.9941 124.658 72.4281 124.654C71.8039 124.65 71.6666 124.637 71.754 125.331C70.9342 124.888 66.1361 123.105 65.3371 122.959C55.9489 121.243 48.4709 126.303 46.4193 126.688C49.7692 113.719 58.966 108.161 72.0911 111.268C61.9622 106.512 49.84 112.182 46.2487 122.621C44.9254 112.266 52.2994 104.754 62.2951 103.977H62.2993Z" fill="#F3B56F"/>
  <path d="M78.8492 119.23C78.8201 119.184 78.4248 118.057 78.8492 118.211C87.6922 123.247 90.8133 128.124 97.767 134.988C93.1395 128.241 85.4576 120.228 78.1751 116.516C79.2404 114.675 79.565 114.808 78.5121 112.788C82.711 114.884 95.499 122.863 98.1041 125.836C101.991 130.27 105.819 141.306 106.211 147.189C107.409 165.244 95.0912 168.605 94.0509 166.171C93.6222 165.164 100.668 162.083 98.7782 145.494C97.4091 133.435 88.2915 125.631 78.8492 119.226V119.23Z" fill="#F3B56F"/>
  <path d="M122.428 156.175C121.574 157.636 120.23 158.88 119.049 160.074L119.556 160.246C121.183 158.98 122.041 157.561 123.102 155.84C126.56 150.25 126.535 146.254 124.791 139.911C126.547 139.915 127.983 137.239 129.182 135.844C129.702 138.316 130.297 142.567 130.197 144.997C129.756 155.381 118.911 164.179 109.423 166.35C102.611 167.908 109.44 165.711 111.957 162.112C116.756 155.256 115.969 146.224 112.973 138.892C114.404 138.153 113.322 136.053 112.973 134.826L113.31 134.149C115.257 138.116 115.349 136.003 115.844 136.521C116.41 137.114 116.872 139.744 117.7 139.064C119.427 134.015 114.284 128.433 117.026 127.03C122.249 136.475 128.72 145.377 122.432 156.179L122.428 156.175Z" fill="#F3B56F"/>
  <path d="M104.188 127.702C108.512 133.452 113.605 139.611 114.321 147.193C115.253 157.085 109.731 168.267 98.4453 167.189C112.141 160.016 108.233 140.905 102.161 129.736C102.969 128.917 101.62 128.015 104.188 127.702Z" fill="#F3B56F"/>
  <path d="M65.6783 124.65C69.4278 125.335 70.2309 126.537 72.7735 129.055C61.159 122.211 49.5404 129.251 41.6961 138.208C40.8347 139.189 38.6791 141.009 38.317 141.765C37.5888 144.462 37.3432 147.385 36.6275 150.07C36.5484 150.362 35.3333 152.813 34.9379 154.813C34.0474 145.69 38.2546 136.224 45.4081 130.408C50.4018 126.349 59.3696 123.493 65.6783 124.646V124.65Z" fill="#E0C59D"/>
  <path d="M97.767 151.427C97.8378 159.932 95.7987 167.256 85.9444 167.356L83.2437 167.185C84.5337 167.895 85.0164 167.365 85.9444 167.356L86.1151 168.033H81.7248C81.4917 167.903 82.1825 166.329 82.2325 165.999C83.0273 167.536 83.1729 165.294 83.7514 164.981C85.5699 163.999 92.919 162.947 96.0816 156.337C96.8765 154.68 96.864 151.189 97.7712 151.423L97.767 151.427Z" fill="#D19551"/>
  <path d="M44.7339 125.669C44.8255 125.823 44.6715 126.612 45.2416 126.688C46.2237 127.093 45.9699 126.771 46.4235 126.688C48.475 126.303 55.9531 121.243 65.3413 122.959C65.5368 124.416 66.8352 122.825 65.6783 124.654C59.3696 123.502 50.4018 126.358 45.4081 130.416L43.0444 127.364C42.8654 126.775 42.0873 126.182 41.3549 121.94C42.9362 120.587 42.1788 123.172 43.0444 120.245C43.1609 121.652 44.0098 124.42 44.7339 125.669Z" fill="#3A2E24"/>
  <path d="M53.1774 106.011C52.6822 106.299 51.2424 106.959 51.1508 107.03C50.9011 102.666 46.2986 106.591 48.7871 109.401C46.3277 112.408 45.0544 116.249 45.071 120.078C45.0752 121.013 47.2766 127.063 44.7339 125.669C44.0098 124.42 43.1609 121.652 43.0444 120.245C42.5034 113.669 44.2179 110.157 47.7718 104.992C50.3726 105.815 47.7593 104.52 48.9536 103.973C49.0535 103.927 48.9827 104.812 50.8096 103.635C51.1217 103.435 51.5795 103.1 51.825 102.959C52.4325 102.75 52.9319 102.512 53.5145 102.282L53.1774 106.011Z" fill="#F3B56F"/>
  <path d="M56.2194 101.263L56.8936 103.973C56.6938 104.036 53.7351 105.681 53.1774 106.007L53.5145 102.278C54.4092 101.919 55.2831 101.522 56.2153 101.259L56.2194 101.263Z" fill="#F0CE92"/>
  <path d="M51.1508 107.025C51.0177 107.13 48.9203 109.234 48.7871 109.397C46.2986 106.587 50.9011 102.662 51.1508 107.025Z" fill="#F3B56F"/>
  <path d="M73.1065 63.6425L75.8072 65.676C75.1206 67.1249 73.8722 71.1583 73.7806 72.6239C73.6266 75.0707 74.1551 72.7533 75.1331 71.0999C74.2717 74.3985 73.5434 79.4758 76.1485 81.9477C76.0153 82.0312 76.4731 83.0291 73.7848 83.6429C72.3491 81.171 71.6292 78.0395 71.4211 75.1709C71.3503 74.1897 71.084 74.2064 71.084 74.1521C71.1381 69.2836 74.5213 65.534 71.9288 65.6802C70.5555 65.7553 49.1617 74.1939 46.257 75.5091C33.5355 81.2754 16.5195 91.309 7.91786 102.453C-5.44861 119.773 1.31369 133.364 13.9977 148.041C16.9315 151.435 19.5032 154.6 22.9489 157.532C24.3846 158.751 35.4789 167.285 36.2904 166.175C33.6562 159.056 31.742 158.834 29.5323 155.836C25.7121 150.646 21.2843 145.728 18.7209 139.736C23.261 146.396 27.8094 153.06 33.4149 158.884C31.0262 147.055 34.4927 136.663 43.7185 128.888C43.2441 128.5 43.2025 127.89 43.0444 127.364L45.4081 130.416C38.2504 136.233 34.0432 145.698 34.9379 154.822C35.2417 157.945 35.7536 160.822 37.8093 163.294C40.5101 158.012 43.0569 157.36 48.113 160.241C49.6028 161.089 52.3743 163.828 53.1816 165.494C50.0813 163.707 45.8825 158.651 41.8667 159.561C39.3282 160.137 36.873 166.58 42.5409 169.728C44.1888 170.642 57.5636 174.221 59.7691 174.471C63.2689 174.872 66.2693 174.526 69.7357 174.133C69.7857 174.129 69.5318 174.375 70.7511 174.133C71.4461 173.995 72.2534 174.463 72.7777 173.624C72.3657 173.235 70.8551 174.116 70.7511 174.133C70.4681 174.175 69.7482 174.183 69.7357 174.133C69.5651 173.448 72.1036 173.962 70.0728 172.438C75.2704 174.663 79.0698 170.175 80.8842 165.49C83.9386 157.594 82.7402 150.041 80.21 142.27C78.4664 136.922 76.781 133.018 72.7777 129.051C70.2393 126.533 69.4361 125.331 65.6825 124.646C66.8394 122.817 65.541 124.408 65.3454 122.951C66.1444 123.097 70.9425 124.88 71.7623 125.322C75.3536 127.264 78.7951 131.331 75.6491 130.065C75.5284 130.015 75.1123 128.842 73.9596 128.032C68.4915 124.191 74.305 128.905 75.1414 129.894C77.7881 133.03 82.1159 142.821 82.9108 146.842C84.5254 155.035 83.2811 158.88 82.2366 165.991C82.1867 166.321 81.4959 167.895 81.7289 168.024H86.1192L85.9486 167.348C95.8028 167.248 97.8419 159.924 97.7712 151.419C97.6838 140.563 92.636 134.867 92.7026 133.794C92.7275 133.823 93.3518 134.099 93.3767 134.132C93.4183 134.178 93.8719 134.888 94.0509 135.151C94.0842 135.218 94.1383 135.978 94.5586 136.508C95.1911 135.51 94.0925 135.214 94.0509 135.151C93.693 134.479 93.6722 134.558 93.3767 134.132C93.3434 134.086 93.5473 133.573 92.869 133.114C92.6194 133.126 92.7151 133.573 92.6984 133.79C92.0451 133.009 91.3418 132.191 90.6718 131.418C85.6823 125.656 79.3236 119.923 78.8492 119.218C88.2915 125.623 97.4091 133.427 98.7783 145.485C100.663 162.07 93.6181 165.156 94.0509 166.162C95.0912 168.596 107.409 165.235 106.211 147.181C105.819 141.297 101.991 130.262 98.1041 125.827C95.4991 122.854 82.711 114.875 78.5121 112.779C71.9579 109.506 69.8065 108.349 61.4545 108.036C56.544 109.368 55.5744 108.144 60.9468 107.698C72.3574 106.75 85.1163 114.357 93.8844 121.255C94.4296 121.685 96.4645 124.433 96.7558 123.46C89.5316 112.37 75.8488 102.917 62.2993 103.969C52.3035 104.746 44.9295 112.253 46.2528 122.612C49.8441 112.17 61.9664 106.503 72.0952 111.259C58.9701 108.157 49.7734 113.71 46.4235 126.679C45.9699 126.763 46.2237 127.084 45.2416 126.679C44.6715 126.604 44.8255 125.819 44.7339 125.66C47.2766 127.055 45.0752 121.005 45.071 120.069C45.0544 116.241 46.3277 112.399 48.7871 109.393C48.9203 109.23 51.0177 107.121 51.1508 107.021C51.2424 106.95 52.6822 106.295 53.1774 106.002C53.7351 105.677 56.6897 104.032 56.8936 103.969C58.3917 103.489 61.9913 103.004 63.6517 102.95C76.0236 102.574 88.4246 110.245 95.7446 119.898C96.8265 121.326 101.367 128.266 102.161 129.727C108.233 140.897 112.141 160.008 98.4453 167.181C109.731 168.254 115.257 157.076 114.321 147.185C113.605 139.606 108.508 133.448 104.188 127.694C101.392 123.974 96.9347 119.31 96.4187 118.541C91.4541 111.155 105.74 127.214 107.904 130.237C109.606 132.613 111.891 136.233 112.973 138.88C115.969 146.212 116.756 155.243 111.957 162.1C109.44 165.699 102.615 167.895 109.423 166.338C118.911 164.166 129.756 155.369 130.197 144.984C130.85 144.93 130.313 143.673 130.705 143.627C131.067 143.586 130.455 145.272 131.549 144.984C131.15 150.529 130.06 152.325 127.833 157.185C127.546 157.193 125.112 158.095 125.132 158.371C127.301 158.529 126.693 158.855 126.822 158.88C124.354 161.168 121.703 163.406 118.716 164.981C116.348 166.229 109.91 168.634 107.401 169.047C101.837 169.966 98.0458 168.258 101.658 170.066C111.766 175.123 135.586 177.298 147.429 178.881C129.14 177.281 109.777 176.112 93.5515 166.68C88.7367 170.317 79.307 167.31 79.7023 171.766C123.996 190.71 237.424 195.62 269.38 154.989C276.637 145.761 278.306 132.312 273.433 121.602C272.613 119.798 271.194 117.806 270.054 116.178L270.391 114.821C271.232 116.207 272.318 117.389 273.092 118.888C282.238 136.608 276.446 152.354 261.436 163.966C234.162 185.073 185.856 188.179 152.664 186.676C142.581 186.221 132.519 184.647 122.432 183.966C107.738 180.931 93.0147 177.716 79.024 172.104C78.5829 172.133 76.1776 174.764 71.084 175.833C65.3704 177.035 61.8498 175.64 61.6251 176.509C57.8133 175.44 53.9473 174.546 50.1396 173.457C48.9328 172.868 48.5541 171.277 46.4235 173.457C34.6342 167.728 17.8387 155.82 9.94031 145.323C6.32404 140.517 0.776872 130.04 0.144336 124.141C-2.48152 99.7434 31.3508 80.5155 50.3102 72.1145C57.214 69.0539 71.9246 64.248 73.1106 63.6425H73.1065Z" fill="#3A2E24"/>
  <path d="M60.9468 107.706C62.3326 106.303 63.5144 106.027 62.2993 103.977C75.8488 102.925 89.5316 112.378 96.7558 123.468C96.4645 124.441 94.4296 121.694 93.8844 121.264C85.1163 114.366 72.3616 106.758 60.9468 107.706Z" fill="#F3B56F"/>
  <path d="M104.188 127.702C101.62 128.015 102.969 128.917 102.161 129.736C101.367 128.274 96.8265 121.335 95.7446 119.907L96.4187 118.55C96.9347 119.318 101.392 123.982 104.188 127.702Z" fill="#F0CE92"/>
  <path d="M94.0509 135.16C94.0925 135.218 95.1869 135.519 94.5586 136.517C94.1383 135.986 94.0883 135.226 94.0509 135.16Z" fill="#CAA272"/>
  <path d="M94.0509 135.16C93.8678 134.896 93.4142 134.187 93.3767 134.141C93.6763 134.567 93.6972 134.483 94.0509 135.16Z" fill="#CAA272"/>
  <path d="M93.3767 134.141C93.3476 134.107 92.7234 133.832 92.7026 133.803C92.7151 133.585 92.6235 133.139 92.8732 133.126C93.5473 133.581 93.3476 134.095 93.3809 134.145L93.3767 134.141Z" fill="#CAA272"/>
  <path d="M37.131 164.647C37.2392 164.626 37.9633 165.757 37.9758 165.832C38.292 168.041 36.4735 164.759 37.131 164.647Z" fill="#B69F7E"/>
  <path d="M70.7428 174.137C70.8468 174.121 72.3574 173.244 72.7694 173.628C72.245 174.467 71.4377 173.999 70.7428 174.137Z" fill="#B69F7E"/>
  <path d="M70.7428 174.137C69.5276 174.379 69.7815 174.133 69.7274 174.137C69.7399 174.187 70.4556 174.179 70.7428 174.137Z" fill="#888167"/>
  <path d="M80.2017 142.279C82.736 150.049 83.9303 157.598 80.8758 165.498C79.0614 170.183 75.2662 174.672 70.0645 172.446C67.1723 171.21 61.0259 165.473 60.0979 161.941C60.0396 162.638 59.7358 163.344 59.5902 163.974C59.7109 143.214 41.3091 143.189 37.2933 150.078H36.6192C37.3349 147.398 37.5763 144.471 38.3087 141.773C38.6707 141.018 40.8264 139.197 41.6878 138.216C41.5463 139.861 45.8991 137.08 47.9382 136.521C74.771 129.18 75.8322 154.838 80.1975 142.283L80.2017 142.279Z" fill="#F3B56F"/>
  <path d="M48.113 160.241C51.1342 160.98 54.5798 161.87 56.8977 163.97C57.189 165.085 58.2877 167.674 58.7537 169.056C59.5236 167.411 59.2032 165.72 59.5985 163.97C59.74 163.34 60.0479 162.634 60.1062 161.937C61.03 165.469 67.1806 171.206 70.0728 172.442C72.1036 173.966 69.5651 173.453 69.7357 174.137C66.2693 174.53 63.273 174.876 59.7691 174.476C57.5677 174.225 44.1888 170.647 42.5409 169.732C36.873 166.584 39.3282 160.141 41.8667 159.565C45.8825 158.655 50.0855 163.711 53.1816 165.498C52.3743 163.832 49.6028 161.093 48.113 160.246V160.241Z" fill="#D19551"/>
  <path d="M56.8936 163.97C54.5757 161.87 51.1342 160.98 48.1088 160.241C43.0527 157.36 40.5059 158.008 37.8052 163.294C35.7494 160.822 35.2376 157.945 34.9338 154.822C35.3291 152.822 36.5443 150.371 36.6233 150.078H37.2975C36.7856 150.959 35.3915 156.108 36.4527 155.502C40.5267 141.548 57.8798 145.49 58.4083 161.264C56.8104 154.709 51.8458 146.266 43.8808 147.707C42.4618 147.961 38.704 151.427 37.9675 152.621C35.0253 157.402 40.9137 150.028 42.8654 149.402C47.5013 147.911 52.2536 150.266 54.5216 154.316C56.4109 157.69 55.9906 160.559 56.8853 163.974L56.8936 163.97Z" fill="#D19551"/>
  <path d="M59.5943 163.97C59.199 165.72 59.5194 167.411 58.7496 169.056C58.2793 167.678 57.1849 165.089 56.8936 163.97C55.9989 160.555 56.4192 157.686 54.5299 154.312C52.2619 150.262 47.5096 147.907 42.8738 149.398C40.9221 150.024 35.0337 157.398 37.9758 152.617C38.7123 151.423 42.4701 147.957 43.8892 147.703C51.8541 146.262 56.8187 154.705 58.4167 161.26C57.884 145.485 40.5351 141.544 36.461 155.498C35.3999 156.108 36.7939 150.955 37.3058 150.074C41.3216 143.185 59.7233 143.21 59.6027 163.97H59.5943Z" fill="#4D3522"/>
  <path d="M73.4477 124.992C76.4897 126.345 84.7251 132.567 84.7626 136.178C81.7997 131.164 76.8268 128.212 72.4323 124.654C72.9983 124.658 73.0357 124.813 73.4477 124.992Z" fill="#292421"/>
  <path d="M78.1751 116.516C85.4576 120.228 93.1395 128.241 97.767 134.988C90.8175 128.124 87.6964 123.247 78.8492 118.211C72.2742 114.47 65.3371 112.061 57.5677 113.297C63.5851 111.005 72.5363 113.643 78.1751 116.516Z" fill="#292421"/>
  <path d="M102.499 98.5534C105.137 101.28 109.694 104.14 112.632 107.197C119.032 113.848 127.276 126.796 129.186 135.836C127.987 137.235 126.552 139.907 124.795 139.903C124.608 139.214 124.358 138.542 124.121 137.869C126.348 138.049 124.367 132.379 124.121 130.75C123.913 129.377 124.383 128.166 123.447 125.159C120.905 116.988 106.598 103.368 100.139 97.1964C100.83 97.6724 101.708 98.424 102.503 98.5534H102.499Z" fill="#F3B56F"/>
  <path d="M122.09 133.803C122.706 135.118 123.643 136.533 124.117 137.869C124.354 138.542 124.604 139.214 124.791 139.903C126.535 146.25 126.56 150.245 123.102 155.832L122.428 156.17C128.715 145.368 122.244 136.466 117.022 127.022C115.57 124.391 114.234 121.723 112.295 119.397L112.802 118.888C114.126 118.9 121.158 131.802 122.09 133.803Z" fill="#3A2E24"/>
  <path d="M122.428 156.175L123.102 155.836C122.041 157.557 121.183 158.976 119.556 160.241L119.049 160.07C120.226 158.876 121.574 157.636 122.428 156.17V156.175Z" fill="#B98650"/>
  <path d="M85.9444 167.361C85.0164 167.369 84.5337 167.899 83.2437 167.189L85.9444 167.361Z" fill="#3A2E24"/>
  <path d="M124.117 137.869C123.643 136.533 122.706 135.118 122.09 133.803L124.117 130.75C124.363 132.379 126.343 138.045 124.117 137.869Z" fill="#E0C59D"/>
</svg>