<svg xmlns="http://www.w3.org/2000/svg" width="321" height="210" viewBox="0 0 321 210" fill="none">
  <path d="M299.301 163.285L298.28 164.247C300.265 165.123 305.198 166.161 303.098 166.982C303.161 167.014 303.932 167.851 304.059 168.003C305.095 169.243 305.534 170.715 305.965 172.225C305.347 171.868 304.848 171.483 304.198 171.146L303.563 172.042C305.338 173.85 307.226 180.554 307.832 183.176C308.159 184.58 309.368 186.543 308.684 188.17L309.58 188.805C311.026 184.655 306.654 172.917 305.943 167.48C310.556 161.3 313.303 153.762 314.16 146.113C312.695 153.331 310.011 160.605 305.59 166.55C303.47 164.547 301.487 164.322 299.299 163.271L299.301 163.285Z" fill="#3D3935"/>
  <path d="M275.006 159.918C272.207 163.041 270.077 162.927 266.047 163.028C266.153 163.227 267.125 167.146 265.034 166.367C265.214 166.409 268.044 167.827 267.41 168.731C271.834 168.396 277.94 167.036 282.646 166.53C284.371 166.344 287.799 166.822 291.488 166.208C292.141 166.096 295.079 165.776 295.298 165.363C292.22 163.423 286.873 158.935 288.955 155.97C288.709 155.593 288.361 153.802 287.632 152.835C286.68 151.573 283.604 150.449 282.337 149.588C286.408 161.891 277.174 156.143 275.957 157.399C275.583 157.788 276.594 158.165 275.009 159.932L275.006 159.918Z" fill="#FBFCD8"/>
  <path d="M114.879 50.8223C112.182 52.4244 109.443 54.9662 107.727 57.5791C108.357 57.4139 107.072 60.3509 106.013 61.4279C104.393 63.0775 102.856 62.241 102.564 64.387C104.59 64.3162 107.039 64.2238 108.965 63.693C109.227 63.6194 115.386 60.0246 110.882 63.366C107.618 65.795 102.232 65.5785 98.329 65.1092C97.8106 65.841 99.3937 67.5805 99.5533 67.669C102.418 69.1683 109.351 67.48 112.682 67.0131C111.816 59.0504 115.121 53.9762 121.842 50.0325C122.726 46.7808 119.093 51.9687 114.924 50.0268C114.614 50.1158 114.898 50.8047 114.865 50.8247L114.879 50.8223Z" fill="#EB9154"/>
  <path d="M111.607 50.195C112.694 51.0215 113.559 51.2572 114.879 50.8223C114.912 50.8023 114.627 50.1064 114.938 50.0244C119.107 51.9663 122.74 46.7784 121.856 50.0301C127.375 46.7903 138.38 42.9185 144.513 44.9808C144.967 44.4624 144.202 44.34 144.061 43.4748C140.239 44.6254 139.721 43.6222 140.716 40.0912C141.064 38.8681 142.862 35.1713 144.355 35.9143C144.784 34.8291 145.617 33.993 146.232 33.0208C136.92 36.3943 129.812 48.7891 125.422 44.2825C122.281 44.2544 114.765 48.4564 111.607 50.195Z" fill="#EB9154"/>
  <path d="M59.3466 89.1563C61.0691 92.4334 57.5929 92.8166 57.4356 93.0386C54.9723 96.7332 55.3145 101.41 54.1523 105.063C55.7078 103.844 55.9361 104.419 56.0038 104.35C56.5995 102.376 56.7941 101.483 57.9725 99.6623C58.4428 96.1052 61.9577 94.5083 64.7384 92.9714C63.2786 89.4543 66.204 86.8592 68.618 85.5873C68.8705 85.4575 69.8253 84.2754 71.6283 84.6764C70.9123 83.6564 69.3324 80.6223 70.9072 80.4478C70.7113 80.0619 70.9269 79.1649 70.4552 78.9418C64.7952 82.2852 63.1961 84.6903 59.3442 89.1422L59.3466 89.1563Z" fill="#D77D49"/>
  <path d="M93.7221 63.5239C94.6721 64.7715 96.5977 64.4503 97.0607 64.5376C96.9862 63.1263 98.8152 64.5276 102.571 64.3858C102.863 62.2398 104.399 63.0693 106.02 61.4267C105.928 59.8304 106.942 58.7828 107.734 57.5779C109.451 54.972 112.19 52.4303 114.886 50.8211C113.566 51.256 112.708 51.0191 111.614 50.1938C105.158 53.7452 98.7807 58.1796 93.7221 63.5239Z" fill="#D77D49"/>
  <path d="M223.906 99.05C225.128 100.663 226.341 101.801 226.381 101.989C226.795 103.74 225.328 103.405 225.071 103.593C224.501 104.023 223.565 104.465 222.898 104.752C221.95 105.166 220.439 105.374 219.509 105.727C216.591 106.839 213.507 107.785 210.55 108.838C210.529 109.059 210.666 109.353 210.68 109.604C221.991 106.634 232.433 105.779 241.193 114.679L241.696 113.01C240.574 111.937 239.502 110.739 238.351 109.627C235.116 108.668 232.21 105.701 229.776 103.376C224.133 98.0065 223.428 94.6787 223.898 99.0441L223.906 99.05Z" fill="#F6BD72"/>
  <path d="M51.0628 100.848C50.7269 101.845 49.919 108.423 49.8799 110.143C49.8556 111.145 49.8229 111.801 49.5408 112.774C50.5656 114.291 53.9857 105.612 54.1535 105.07C55.3227 101.415 54.9735 96.7402 57.4368 93.0456C57.5859 92.8178 61.0703 92.4404 59.3478 89.1633C57.1681 91.6819 52.0138 98.0329 51.064 100.855L51.0628 100.848Z" fill="#EB9154"/>
  <path d="M259.399 133.325L259.529 134.091C259.835 134.147 259.967 133.395 260.426 133.54C263.582 134.585 262.247 136.548 265.17 134.705C259.683 129.735 254.175 124.776 248.78 119.71C245.087 121.027 257.588 127.88 253.92 131.289C254.923 130.857 259.582 131.516 260.006 132.224C260.037 132.277 259.501 132.737 259.405 133.317L259.399 133.325Z" fill="#F4E8C4"/>
  <path d="M216.837 92.3476C218.819 93.4191 222.505 97.1926 223.906 99.05C223.436 94.6845 224.143 98.0194 229.784 103.382C232.217 105.7 235.123 108.667 238.359 109.633C231.689 103.195 225.468 96.2537 218.105 90.5481L216.83 92.3488L216.837 92.3476Z" fill="#E9E8DC"/>
  <path d="M97.1087 78.7624C99.1285 78.9095 98.2263 80.9934 99.4985 83.4944C100.445 85.357 100.918 85.1244 100.977 85.2156L103.405 83.2185C101.549 80.3472 97.6262 74.0841 97.7549 70.9394C97.8448 68.7121 98.8659 71.0969 99.1287 70.9003C100.935 69.5803 98.5078 69.3364 98.4803 68.2423C97.8641 68.2317 97.5152 67.3299 96.622 67.7713C94.0662 69.0168 98.0015 74.208 97.1145 78.7542L97.1087 78.7624Z" fill="#FDD481"/>
  <path d="M71.6307 84.6904C72.1723 84.8149 74.0496 85.9911 74.1376 86.6339C72.8452 86.5145 72.2984 85.6391 71.6307 84.6904C69.8335 84.2813 68.8717 85.4645 68.6204 85.6014C68.8957 88.4024 72.9082 87.6892 70.6239 90.3992C74.4999 89.2249 80.0429 88.3736 84.0664 88.1067L84.5696 86.4379C77.9699 89.0597 73.9355 86.4659 70.9025 80.463C69.3278 80.6376 70.9076 83.6716 71.6236 84.6916L71.6307 84.6904Z" fill="#EB9154"/>
  <path d="M100.977 85.2156C102.658 87.9505 104.337 90.6351 106.961 92.5008C108.391 93.5146 111.998 95.632 112.347 93.9531C110.123 92.3085 105.017 85.7194 103.398 83.2197L100.97 85.2168L100.977 85.2156Z" fill="#F6BD72"/>
  <path d="M291.494 166.199C294.236 167.401 299.965 165.268 303.092 166.99C305.192 166.169 300.266 165.13 298.274 164.255C288.785 160.062 291.087 159.279 288.953 155.963C286.878 158.927 292.227 163.421 295.296 165.356C295.078 165.769 292.141 166.096 291.487 166.2L291.494 166.199Z" fill="#EDC896"/>
  <path d="M86.3693 85.3358C86.1904 85.7278 84.9883 86.2653 84.5825 86.4284L84.0793 88.0973C88.5314 87.8007 92.9593 87.8696 97.281 89.012C97.3011 88.7484 97.431 88.4082 97.5367 88.1805C93.6788 84.2483 88.5904 86.663 89.4537 84.8171C89.3028 84.8645 87.0341 85.208 86.3775 85.3417L86.3693 85.3358Z" fill="#EB9154"/>
  <path d="M163.218 76.9794C165.445 77.0262 166.762 77.286 168.861 77.6003C168.446 75.7626 168.885 73.5048 168.644 71.7098C168.58 71.2509 167.714 71.1311 167.682 70.6884C165.004 72.4029 163.081 73.5476 163.22 76.9864L163.218 76.9794Z" fill="#F6DEA4"/>
  <path d="M269.362 140.72C269.997 142.281 270.797 143.88 270.979 145.583C272.052 145.473 274.718 146.189 274.827 147.298C275.388 146.602 276.563 146.966 276.169 145.884C274.512 144.475 271.67 140.478 267.482 136.689C268.257 137.973 268.793 139.335 269.355 140.721L269.362 140.72Z" fill="#F6DEA4"/>
  <path d="M140.723 40.09C139.728 43.621 140.239 44.6254 144.068 43.4736C143.939 42.715 143.604 42.0637 143.544 40.397L140.723 40.09Z" fill="#EB9154"/>
  <path d="M140.723 40.09L143.544 40.397C143.525 39.8218 143.21 39.1166 143.249 38.669C143.29 38.2284 144.073 36.6346 144.361 35.9061C142.868 35.1631 141.07 38.8599 140.722 40.083L140.723 40.09Z" fill="#D77D49"/>
  <path d="M154.554 158.318C154.432 159.38 153.04 159.444 152.381 159.476C169.256 163.112 186.374 165.505 203.347 168.574C202.938 167.914 204.919 165.964 205.068 165.91C206.683 165.331 218.348 168.467 217.562 166.15C216.242 165.486 214.441 163.784 210.376 162.236C207.021 160.958 203.325 160.518 199.857 159.678L198.646 161.858C199.509 162.174 204.349 164.529 204.327 165.039C204.205 168.182 193.971 165.258 192.186 164.536C190.719 163.947 189.379 162.868 188.009 162.082C183.695 163.186 174.223 160.284 168.015 159.564C164.416 159.144 157.791 159.667 157.313 158.223C156.525 158.264 155.279 158.332 154.558 158.296L154.554 158.318Z" fill="#F4E8C4"/>
  <path d="M100.322 148.591C104.675 149.533 109.062 151.229 113.406 152.288C121.209 152.909 147.871 159.732 152.381 159.476C153.039 159.436 154.432 159.38 154.554 158.318C151.112 158.139 131.471 152.395 126.403 150.859C125.451 150.573 124.258 150.358 123.451 149.78C115.294 148.908 113.582 148.998 106.074 145.233C104.542 147.185 102.519 147.783 100.321 148.584L100.322 148.591Z" fill="#FDD481"/>
  <path d="M103.156 153.638C108.095 154.545 112.993 155.633 117.902 156.66C140.994 161.491 164.184 165.921 187.399 170.116C187.611 169.241 189.208 170.639 188.675 168.315C161.649 163.433 134.632 158.556 107.763 152.852C106.249 152.532 104.731 151.982 103.208 151.656L103.149 153.639L103.156 153.638Z" fill="#191616"/>
  <path d="M203.348 168.581C204.788 168.842 207.63 169.998 209.377 170.322C221.455 172.534 233.727 174.056 245.787 176.372L246.422 175.476C245.275 175.151 243.333 174.145 243.594 172.792C237.943 172.462 232.472 171.53 226.865 170.903C222.261 169.925 220.259 167.512 217.558 166.165C218.343 168.482 206.678 165.346 205.064 165.925C204.914 165.98 202.934 167.929 203.343 168.59L203.348 168.581Z" fill="#FDD481"/>
  <path d="M246.428 175.468L245.793 176.364C253.07 177.754 265.631 178.981 264.008 182.351C269.221 181.766 275.424 183.26 280.737 184.24C282.142 183.155 281.129 182.554 281.562 182.126C279.8 181.031 279.617 181.316 279.369 178.546C274.174 179.323 263.824 178.515 259.752 174.771C256.636 174.934 248.659 176.092 246.427 175.461L246.428 175.468Z" fill="#FBFCD8"/>
  <path d="M289.777 186.262C292.857 186.821 307.754 190.389 308.685 188.177C309.369 186.55 308.16 184.587 307.833 183.183C307.234 188.482 304.688 186.141 304.385 186.142C297.171 186.18 294.421 185.015 288.1 183.382L289.777 186.262Z" fill="#F4E8C4"/>
  <path d="M280.738 184.247C283.739 184.805 286.771 185.719 289.777 186.262L288.1 183.382C286.467 182.959 283.712 183.458 281.562 182.126C281.13 182.561 282.135 183.156 280.737 184.24L280.738 184.247Z" fill="#F6DEA4"/>
  <path d="M6.55515 122.671C10.3707 125.635 34.4284 133.755 35.6888 134.704C37.721 136.237 36.3867 137.441 38.7783 138.919C41.5831 140.66 94.9778 150.479 103.156 153.638L103.215 151.655C82.5543 147.219 61.8978 142.429 41.3376 137.695L42.3589 136.733C64.4345 141.411 86.3344 147.305 108.407 151.962C158.676 162.567 209.486 170.708 260.031 179.878C267.226 183.248 254.178 179.546 251.189 179.015C230.376 175.343 209.489 172.081 188.683 168.321C189.216 170.644 187.625 169.239 187.407 170.122C199.614 172.326 211.836 174.529 224.079 176.518C226.688 176.94 229.582 176.664 232.032 177.93C219.333 182.806 207.154 186.531 193.89 189.574C193.257 189.718 192.6 189.765 191.973 189.901L192.425 190.222C196.117 189.411 199.827 188.916 203.498 187.936C213.537 185.269 223.215 181.834 232.804 177.798C236.041 177.832 239.201 178.905 242.354 179.336C243.182 179.448 243.982 179.6 244.788 179.709C250.458 180.491 256.352 181.025 261.969 181.918C262.109 181.938 263.516 182.898 264.535 183.064C268.898 183.772 273.487 183.98 277.867 184.744C285.927 186.152 293.963 188.346 302.038 189.716C303.251 189.921 311.257 189.95 305.886 191.43C303.022 192.222 281.051 187.056 276.139 186.224C275.342 186.085 275.113 186.818 275.053 186.807C266.764 185.416 258.418 183.095 250.05 182.765C259.65 184.085 297.922 192.788 302.175 192.851C305.719 192.905 308.318 192.468 309.59 188.818L308.693 188.183C307.762 190.395 292.864 186.82 289.785 186.268C286.78 185.725 283.747 184.811 280.746 184.253C275.432 183.265 269.23 181.779 264.018 182.364C265.633 178.995 253.079 177.767 245.803 176.377C233.736 174.068 221.464 172.54 209.392 170.326C207.647 170.01 204.803 168.847 203.364 168.586C186.389 165.51 169.272 163.123 152.397 159.488C147.881 159.745 121.218 152.922 113.422 152.299C109.077 151.233 104.691 149.545 100.339 148.603C94.2828 147.294 88.2994 145.943 82.2538 144.567C69.029 141.567 55.5747 139.214 42.3094 136.358C40.8354 135.598 38.2577 128.577 30.9984 126.823C30.5867 126.994 30.6305 126.191 27.6088 127.798C27.569 127.82 27.7354 127.82 26.9092 128.315C26.8437 128.355 26.4523 129.535 26.1434 129.631C25.1326 129.934 9.07779 122.588 6.76261 121.472C6.93813 121.738 6.62537 122.659 6.57279 122.69L6.55515 122.671Z" fill="#25231E"/>
  <path d="M108.405 151.955L107.77 152.851C134.639 158.555 161.656 163.432 188.682 168.314C209.488 172.074 230.374 175.329 251.188 179.008C254.183 179.538 267.225 183.241 260.029 179.871C209.485 170.701 158.681 162.558 108.405 151.955Z" fill="#E2D8C6"/>
  <path d="M103.215 151.655C104.738 151.98 106.256 152.531 107.77 152.851L108.405 151.955C86.3414 147.304 64.4333 141.404 42.3577 136.726L41.3364 137.688C61.8966 142.422 82.5531 147.212 103.214 151.648L103.215 151.655Z" fill="#EDC896"/>
  <path d="M30.2879 128.505C29.661 128.431 27.5916 130.071 27.6371 130.338C27.6946 130.675 33.263 132.516 34.1499 132.589C34.8018 132.13 30.575 128.536 30.2879 128.505Z" fill="#F7F7F6"/>
  <path d="M33.423 128.368L32.8794 128.656C36.4389 130.796 41.9782 141.366 40.4658 136.058C40.143 134.928 34.4633 128.408 33.4218 128.361L33.423 128.368Z" fill="#C5C2AB"/>
  <path d="M256.318 182.477C257.975 182.997 258.076 182.907 259.591 183.104C258.043 182.674 257.916 182.653 256.318 182.477Z" fill="#3D3935"/>
  <path d="M259.591 183.104C259.689 183.131 260.814 184.175 261.606 183.353C260.993 182.894 260.152 183.175 259.591 183.104Z" fill="#565856"/>
  <path d="M256.318 182.477C256.237 182.469 255.142 181.47 254.682 182.163C255.341 182.933 256.074 182.403 256.318 182.477Z" fill="#4F4A47"/>
  <path d="M35.4644 125.251C35.5758 125.269 35.1833 125.552 37.5783 126.076C43.231 127.31 48.5407 129.542 54.1898 130.754C58.8706 131.756 61.9594 131.771 64.3153 132.193C64.9939 132.316 65.6928 132.515 66.3633 132.632C68.459 133.012 75.6534 133.411 80.7236 134.535C84.9672 135.474 88.9991 136.781 93.0414 138.361C101.181 141.549 102.787 143.588 106.074 145.233C113.582 148.998 115.294 148.908 123.451 149.78C129.031 150.375 138.561 150.781 144.407 150.948C146.608 151.013 150.19 150.272 152.797 150.305C158.21 150.386 163.691 150.102 168.662 152.934C158.639 160.448 152.126 157.048 141.213 154.254C136.664 153.092 131.054 150.709 126.402 150.852C131.477 152.386 151.118 158.13 154.553 158.311C155.275 158.347 156.519 158.272 157.309 158.239C159.839 158.118 161.392 158.026 163.84 157.125C164.473 156.894 168.867 154.222 169.717 153.354C173.437 155.04 177.447 155.455 181.452 156.095C187.702 157.103 193.69 158.186 199.85 159.68C203.318 160.519 207.007 160.96 210.369 162.237C214.434 163.785 216.236 165.494 217.555 166.151C220.257 167.498 222.258 169.911 226.863 170.889C232.471 171.523 237.941 172.448 243.592 172.778C259.107 173.696 261.974 171.906 269.857 171.465C275.447 171.148 296.086 169.645 299.708 170.328C300.641 170.502 302.977 171.448 303.556 172.043L304.191 171.147C299.656 168.754 298.865 169.373 294.001 169.328C276.27 169.15 258.839 173.315 241.093 172.026C220.411 170.522 222.282 166.068 212.098 161.95C203.876 158.624 187.575 156.106 178.312 155.061C172.081 153.659 166.685 150.705 164.842 150.239C158.038 148.529 140.156 150.09 127.294 149.131C117.82 148.419 112.292 148.849 104.046 142.622C111.875 145.645 118.615 146.809 126.967 147.214C136.222 147.659 143.275 146.594 148.428 146.72C163.973 147.098 178.537 153.794 194.073 154.752C200.129 156.654 206.029 158.958 211.975 161.19C225.225 166.159 223.983 168.453 240.323 169.801C261.377 171.538 276.419 167.483 295.666 167.483C298.486 167.486 301.264 167.714 304.063 168.024C303.936 167.872 303.157 167.037 303.101 167.003C299.975 165.288 294.245 167.414 291.503 166.212C287.82 166.819 284.386 166.349 282.661 166.535C277.956 167.041 271.849 168.4 267.425 168.735C255.176 169.675 242.961 169.163 230.714 167.876C220.935 164.823 211.787 159.791 202.098 156.542C199.507 155.676 196.935 154.748 194.335 153.912C189.912 153.235 185.512 152.778 181.126 151.813C173.85 150.213 166.255 148.017 158.938 146.901C154.159 146.169 149.339 145.878 144.52 145.803C143.991 145.792 140.271 146.528 133.95 146.42C132.5 146.393 131.044 146.417 129.592 146.376C124.179 146.207 122.777 146.295 117.156 145.33C112.16 144.476 107.812 143.049 103.044 141.412C104.264 141.616 102.556 142.789 102.311 141.732C102.26 141.517 102.836 141.375 103.044 141.412C103.021 141.402 103.16 141.284 102.592 141.092C98.4473 139.673 93.0927 136.755 89.8222 135.759C86.3535 134.702 68.3846 132.237 81.4767 132.043C83.9854 132.005 87.2815 132.939 89.8085 133.39C96.0992 134.508 105.62 139.057 115.118 134.611C116.611 133.915 119.348 131.063 119.136 129.184C118.785 126.107 114.007 124.666 111.556 124.152C111.017 124.041 110.357 123.691 109.888 123.648C107.305 123.38 104.109 123.455 101.752 124.638C103.718 125.611 104.78 124.086 107.387 124.075C115.245 124.043 121.705 130.387 114.98 133.847C105.44 138.763 91.2456 131.815 81.2744 130.899C65.924 134.803 50.5438 128.022 35.4458 125.269L35.4644 125.251Z" fill="#25231E"/>
  <path d="M295.664 167.469L294.009 169.334C298.875 169.386 299.664 168.76 304.199 171.153C304.842 171.491 305.349 171.875 305.966 172.232C305.535 170.723 305.096 169.25 304.061 168.01C301.261 167.7 298.489 167.464 295.664 167.469Z" fill="#E9E8DC"/>
  <path d="M160.921 12.5239C160.246 12.9716 151.822 14.0106 145.175 16.3947C138.888 18.6452 133.182 22.6108 127.145 25.3969C126.838 25.5866 125.734 27.1699 121.335 29.5538C112.896 33.2989 104.142 36.5988 96.0087 40.9929C91.9117 43.2024 63.7331 61.3084 62.2673 63.351C60.071 66.4074 64.94 64.5289 61.3913 68.6399C56.4699 74.3223 49.8473 80.7936 54.5487 88.7818C55.2263 87.712 56.0636 84.8658 58.3044 81.8163C67.1548 75.0157 65.5704 67.6742 74.9514 61.1879C79.761 57.8594 94.1777 51.4468 100.84 46.0965L122.842 36.0193C133.556 30.484 144.492 21.9687 156.349 19.2382C157.079 19.0703 164.417 17.472 163.621 18.9885C148.08 20.8436 138.314 28.6317 125.212 36.0128C106.841 42.8033 90.7234 53.8648 73.7415 63.3749C69.0607 67.6284 66.9009 73.5265 63.2925 78.6019C63.0071 79.0048 60.7853 80.5981 56.8792 86.2158C55.7073 87.9047 56.8366 91.0517 49.0665 94.8634C41.1804 104.817 33.7744 115.087 27.0815 125.893C30.5707 116.262 44.3311 95.83 53.215 91.3874C53.4193 91.1863 53.38 90.4051 53.5945 90.1372C52.8271 86.0611 51.7383 84.3384 52.6566 80.0181L49.1284 79.0368C39.5375 90.0984 29.5895 100.888 19.7155 111.731C22.9265 112.463 25.6402 113.966 28.3165 115.801C37.7365 100.432 43.3603 97.4268 43.9676 96.3257C44.156 95.9899 44.1447 92.3632 46.9184 89.3023C49.1568 86.8315 52.8466 85.3276 51.5583 87.5207C51.2277 88.0831 46.0014 87.4853 44.5503 97.4118C40.3455 98.6927 23.9584 123.303 24.3442 124.972C24.3942 125.18 26.5102 126.272 27.5912 127.78C30.6129 126.173 30.5691 126.975 30.9807 126.804C31.1971 126.717 31.5217 126.755 31.7463 126.673C31.7088 126.073 32.3603 125.824 32.3812 125.777C32.4243 125.69 32.0614 125.767 33.2707 124.043C32.4154 123.35 33.1657 122.282 33.6098 121.411C39.5176 109.901 53.6082 95.3033 61.4968 84.4308C64.1852 81.717 68.2706 79.524 69.5462 78.3161C69.7948 78.0785 69.7074 76.3369 70.9538 77.2882C70.5561 69.701 83.3173 63.7948 89.9244 62.1909C91.1066 61.6641 92.3719 60.1833 93.7662 61.5358C100.356 57.2025 117.474 42.8549 125.217 43.1247C127.624 43.2059 125.481 45.6459 129.445 43.5892C123.853 42.9236 130.393 38.8881 132.259 41.5263C135.882 38.7832 146.486 29.8909 149.568 28.2955C154.037 25.9793 164.497 25.0557 162.865 21.6763C149.395 22.3686 138.836 31.7376 127.5 37.9864C114.92 42.9219 102.149 48.1791 92.0828 57.4713C81.4031 61.8515 75.0572 62.2325 69.7549 73.7338C72.8985 59.7454 86.2755 59.9507 92.2727 56.2534C101.743 46.4773 115.084 42.0193 127.31 36.8332C137.233 31.3605 150.379 21.0588 161.91 20.6537C164.769 20.5492 167.689 25.2124 161.235 12.0729C161.356 12.5293 161.018 12.4568 160.914 12.5251L160.921 12.5239Z" fill="#E4B181"/>
  <path d="M162.88 21.6809C162.6 21.0997 161.859 21.6672 161.918 20.6595C150.387 21.0646 137.241 31.3663 127.318 36.839C115.091 42.0181 101.751 46.4832 92.2809 56.2592C86.2908 59.9553 72.9137 59.75 69.7632 73.7396C75.0667 62.2453 81.4113 61.8573 92.0911 57.4771C102.157 48.1849 114.928 42.9277 127.508 37.9922C138.845 31.7434 149.404 22.3744 162.873 21.6821L162.88 21.6809Z" fill="#2C1E19"/>
  <path d="M6.74497 121.453C9.05434 122.577 25.1161 129.922 26.1258 129.613C26.4347 129.517 26.8261 128.337 26.8915 128.297C24.5 125.589 18.4456 123.737 14.5012 121.714C7.92556 118.332 7.22501 113.969 1.12971 118.659C2.81779 119.954 4.86277 120.545 6.74617 121.46L6.74497 121.453Z" fill="#D0996B"/>
  <path d="M15.6976 115.972C15.5712 115.994 15.4447 116.016 15.3113 116.038C16.1257 119.543 23.1152 118.698 21.7459 123.637C22.3521 123.801 23.3004 124.912 24.0564 124.428C25.0276 121.393 26.6646 118.49 28.3153 115.794C25.639 113.959 22.9253 112.456 19.7143 111.724C18.1011 113.495 18.4665 115.341 15.6964 115.965L15.6976 115.972Z" fill="#E4B181"/>
  <path d="M21.7459 123.637C23.1152 118.698 16.1257 119.543 15.3113 116.038L8.61551 116.19C12.6908 119.066 16.8238 122.322 21.7459 123.637Z" fill="#E4B181"/>
  <path d="M129.46 43.5938C130.882 42.8599 131.211 42.3338 132.274 41.5309C130.408 38.8927 123.868 42.9283 129.46 43.5938Z" fill="#EDC896"/>
  <path d="M6.99008 102.039C4.54531 106.605 2.18372 111.193 1.11487 116.284C5.89242 115.31 10.8639 114.202 15.6906 115.974C18.4665 115.341 18.0952 113.503 19.7085 111.732C29.5755 100.891 39.5247 90.1078 49.1214 79.038L52.6496 80.0193C53.8832 74.1996 58.8793 71.5405 61.3855 68.6481C64.9342 64.5371 60.0722 66.4144 62.2615 63.3593C63.7273 61.3166 91.9059 43.2106 96.0029 41.0012C104.137 36.6141 112.89 33.3071 121.329 29.5621C125.737 27.1839 126.839 25.5936 127.139 25.4051C127.29 25.3143 127.946 24.0748 129.692 22.9964C136.502 18.7701 153.147 11.1391 160.915 12.5322C161.019 12.4638 161.35 12.5376 161.236 12.0799C160.337 10.2453 159.162 6.27493 157.654 4.97791C156.79 4.23609 153.026 3.7359 150.631 2.02633C92.7353 18.4921 35.1144 50.727 6.23799 105.724C5.58487 105.539 6.83603 102.492 6.99008 102.039Z" fill="#F6DBB4"/>
  <path d="M150.652 6.7648C115.983 14.7444 53.7226 46.3031 35.1221 76.8786C33.0733 80.2495 29.2461 88.4488 32.074 84.5185C33.3592 82.7308 35.1937 77.8495 38.6623 73.3112C58.2642 47.6755 104.1 23.0453 134.212 12.3368C145.675 8.26413 152.029 4.79511 152.342 12.0136C152.697 10.1965 152.919 7.05035 150.659 6.7636L150.652 6.7648Z" fill="#2C1E19"/>
  <path d="M127.146 25.4039C133.183 22.6178 138.889 18.6522 145.176 16.4018C151.823 14.0176 160.247 12.9786 160.922 12.531C153.154 11.1379 136.509 18.7689 129.699 22.9952C127.954 24.0806 127.297 25.3131 127.146 25.4039Z" fill="#2C1E19"/>
  <path d="M52.6496 80.0193C51.7313 84.3396 52.8201 86.0622 53.5875 90.1384C54.0748 89.5204 54.1213 89.4546 54.5428 88.79C49.8414 80.8018 56.4641 74.3305 61.3855 68.6481C58.8805 71.5475 53.8914 74.2054 52.6496 80.0193Z" fill="#48392B"/>
  <path d="M54.5428 88.79C54.1213 89.4546 54.0748 89.5204 53.5875 90.1384C53.373 90.4063 53.4122 91.1875 53.208 91.3886C44.3241 95.8312 30.5637 116.264 27.0745 125.894C33.7744 115.087 41.1733 104.819 49.0595 94.8646C56.8296 91.0529 55.7003 87.9059 56.8722 86.217C60.7713 80.6005 62.9931 79.0072 63.2855 78.6031C66.895 73.5348 69.0549 67.6366 73.7345 63.3761C90.7093 53.8672 106.834 42.8045 125.205 36.014C138.299 28.627 148.072 20.8378 163.614 18.9897C164.412 17.4802 157.072 19.0715 156.342 19.2394C144.485 21.9699 133.55 30.4922 122.835 36.0205L100.833 46.0977C94.1707 51.448 79.754 57.8606 74.9443 61.1891C65.5633 67.6754 67.1548 75.0157 58.2974 81.8175C56.0565 84.867 55.2193 87.7132 54.5416 88.783L54.5428 88.79Z" fill="#2C1E19"/>
  <path d="M188.575 123.653C184.105 127.198 183.996 135.457 185.148 140.646C184.328 143.72 182.579 145.84 181.622 147.767C180.675 149.678 179.973 148.865 181.125 151.806C185.502 152.765 189.911 153.228 194.334 153.905C196.934 154.741 199.506 155.669 202.096 156.535C202.277 155.731 206.907 156.011 207.156 156.07C206.951 153.3 206.287 151.867 204.504 149.8C203.554 149.362 199.057 147.23 201.224 146.803C195.497 144.324 191.402 140.02 189.932 133.903C190.227 132.537 191.019 135.698 193.572 139.014L199.954 141.685C194.298 139.035 194.636 137.199 194.397 136.9C191.442 133.175 188.687 128.932 190.631 124.097L190.114 123.397C188.065 127.151 188.76 130.25 188.14 135.003L192.77 147.066C187.639 140.46 185.611 131.661 188.584 123.666L188.575 123.653Z" fill="#F7AC69"/>
  <path d="M158.937 146.894C166.254 148.01 173.85 150.213 181.125 151.806C179.98 148.864 180.675 149.678 181.622 147.767C181.572 145.354 178.527 147.124 177.831 145.248C175.422 148.073 172.674 145.397 169.513 147.454C167.428 145.699 161.235 145.447 158.943 146.886L158.937 146.894Z" fill="#FDD481"/>
  <path d="M189.144 122.37C192.696 115.866 203.832 111.408 210.687 109.603C210.673 109.352 210.536 109.057 210.557 108.837C210.569 108.698 210.456 108.543 210.491 108.451C205.729 109.176 199.342 110.337 195.261 113.021C192.785 114.651 186.51 122.819 189.144 122.37Z" fill="#FBFCD8"/>
  <path d="M196.438 102.549C196.332 103.449 196.233 103.466 195.935 104.218C195.885 104.349 196.169 105.717 194.79 106.784C191.108 109.645 177.497 110.781 172.382 109.817C171.738 109.775 171.563 109.849 170.778 109.693C169.232 109.827 171.309 112.892 168.874 114.76C169.133 114.839 169.463 114.912 169.705 115.016C170.249 115.241 170.857 115.246 170.955 115.395L170.864 116.004C169.99 115.712 169.836 115.405 169.771 115.402C165.18 114.718 161.633 113.834 156.891 114.042C160.689 114.146 168.764 115.769 171.957 117.798C181.191 123.669 177.985 135.896 166.405 139.7C166.46 140.023 167.671 140.641 167.753 140.656C168.399 140.755 169.359 139.941 170.155 140.839C169.179 141.685 168.054 140.937 167.433 141.108C164.892 141.802 162.491 143.447 159.756 143.603C154.468 143.998 148.925 142.262 143.997 142.734C144.297 143.348 144.23 144.906 144.521 145.81C149.34 145.885 154.16 146.176 158.94 146.908C161.231 145.469 167.425 145.721 169.509 147.476C172.678 145.418 175.426 148.094 177.828 145.27C178.524 147.146 181.561 145.378 181.618 147.79C182.575 145.855 184.331 143.734 185.145 140.668C183.993 135.479 184.109 127.219 188.571 123.675C188.73 123.25 188.932 122.782 189.14 122.392C186.506 122.842 192.776 114.681 195.258 113.044C199.339 110.36 205.725 109.198 210.487 108.473C210.798 107.625 211.476 107.408 211.475 107.314C211.488 106.459 210.613 106.919 210.611 106.869C205.373 107.343 202.276 104.951 201.762 104.821C201.385 104.727 201.973 107.879 196.434 102.564L196.438 102.549Z" fill="#FDD481"/>
  <path d="M172.373 109.812C177.49 110.782 191.1 109.64 194.782 106.778C188.018 108.821 179.438 110.298 172.373 109.812Z" fill="#323632"/>
  <path d="M167.752 140.649L167.432 141.101C168.053 140.93 169.171 141.679 170.154 140.832C169.358 139.934 168.398 140.748 167.752 140.649Z" fill="#766957"/>
  <path d="M177.17 141.414C176.329 141.608 176.59 142.503 176.98 142.631C177.792 142.898 177.949 141.237 177.17 141.414Z" fill="#8F8D88"/>
  <path d="M169.77 115.395C169.829 115.407 169.99 115.712 170.862 115.997L170.954 115.388C170.856 115.239 170.248 115.234 169.704 115.009L169.77 115.395Z" fill="#A65E3C"/>
  <path d="M89.4455 84.8112C88.5892 86.656 93.6705 84.2425 97.5285 88.1747C98.3602 86.3558 97.7161 84.8248 99.4973 83.4874C98.2251 80.9864 99.1273 78.9025 97.1075 78.7554C96.217 83.3239 93.3077 83.6827 89.4443 84.8042L89.4455 84.8112Z" fill="#FBFCD8"/>
  <path d="M97.0537 64.5388C97.1205 64.5491 98.2704 65.1048 98.336 65.108C102.239 65.5773 107.618 65.7949 110.889 63.3648C115.386 60.0246 109.227 63.6194 108.972 63.6918C107.039 64.2238 104.59 64.3162 102.571 64.3858C98.814 64.5205 96.985 63.1193 97.0607 64.5376L97.0537 64.5388Z" fill="#523627"/>
  <path d="M72.6819 74.6225C75.4841 75.3735 73.6772 75.1612 74.548 77.4704C75.0143 71.9405 77.511 75.8157 76.152 77.5944C71.8165 77.4735 81.2226 80.7126 73.0892 81.6731C77.0123 88.276 80.4154 86.5319 86.3622 85.337C87.0118 85.2046 89.2875 84.8598 89.4384 84.8124C93.3077 83.6827 96.2112 83.3321 97.1016 78.7636C97.9875 74.2104 94.0534 69.0262 96.6091 67.7807C97.5035 67.3463 97.8513 68.2412 98.4674 68.2517C98.526 68.2562 98.1808 67.7151 99.5533 67.669C99.3949 67.5876 97.8118 65.848 98.329 65.1092C98.2622 65.0989 97.1134 64.5503 97.0466 64.54C96.5848 64.4598 94.6651 64.7727 93.7081 63.5263C91.4897 63.2324 88.4422 66.3833 85.3895 66.9183C95.0773 67.5287 78.5607 66.5866 74.0027 72.0263C73.4383 72.7008 72.9739 73.792 72.6678 74.6249L72.6819 74.6225Z" fill="#EB9154"/>
  <path d="M73.0963 81.6719C81.2285 80.7044 71.8236 77.4723 76.159 77.5932C77.518 75.8145 75.0284 71.9381 74.555 77.4692C73.6854 75.167 75.4924 75.3793 72.6889 74.6213C71.6177 77.5364 71.5425 79.0455 73.1033 81.6707L73.0963 81.6719Z" fill="#F7AC69"/>
  <path d="M89.28 75.7459C84.299 84.2576 90.3458 86.5732 95.7335 79.98C88.1622 84.3217 86.4951 84.8445 89.28 75.7459Z" fill="#523627"/>
  <path d="M77.2313 74.6418C76.9771 74.6346 76.7196 74.6929 76.6877 74.9297C81.2747 79.6194 78.4413 74.6595 77.2313 74.6418Z" fill="#7D4B2A"/>
  <path d="M79.1689 79.0533C78.71 79.1171 78.4599 79.2609 78.6912 79.7275C79.3157 81.0161 81.4225 78.7485 79.1689 79.0533Z" fill="#775243"/>
  <path d="M79.6277 81.7436C79.3627 81.6731 78.2827 81.9513 78.3186 82.162C78.3929 82.5975 80.4461 81.9654 79.6277 81.7436Z" fill="#5D301F"/>
  <path d="M203.449 76.4436C205.218 76.8142 208.506 81.9785 208.792 82.2551C208.888 82.3543 210.456 83.4098 211.036 83.8457C210.363 81.3437 206.648 76.6788 203.704 75.605L203.448 76.4365L203.449 76.4436Z" fill="#D68D45"/>
  <path d="M168.643 71.7028C168.885 73.5048 168.445 75.7556 168.859 77.5933C174.295 78.4012 182.668 81.0501 187.016 84.3784C195.139 82.5522 196.481 89.3638 208.79 82.2481C208.505 81.9715 205.217 76.8071 203.448 76.4365C202.256 76.1844 200.395 77.1813 199.031 77.1899C205.149 74.9682 191.214 77.0844 183.767 73.4679L180.808 71.204C179.806 71.2159 179.855 72.14 179.787 72.166C183.361 75.366 180.92 73.7222 178.996 74.4768L179.401 72.2319C178.868 72.2866 171.874 71.0289 168.634 71.697L168.643 71.7028Z" fill="#FDD481"/>
  <path d="M179.409 72.2377L179.004 74.4826C180.928 73.728 183.369 75.3718 179.795 72.1719C179.695 72.2179 179.53 72.2244 179.409 72.2377Z" fill="#D0B476"/>
  <path d="M172.564 74.9881L172.086 75.6623C175.567 78.4878 176.229 77.4064 172.564 74.9881Z" fill="#816D4F"/>
  <path d="M193.842 76.8965C193.267 77.0884 192.351 77.0134 191.924 77.2235C190.15 78.09 190.22 80.3694 193.842 76.8965Z" fill="#D0996B"/>
  <path d="M184.62 78.4691C183.347 78.5922 184.651 80.43 185.269 79.9416C185.752 79.5555 185.011 78.4314 184.62 78.4691Z" fill="#858064"/>
  <path d="M130.662 108.619C128.914 108.961 128.121 109.06 126.565 110.106C122.715 116.307 125.153 113.44 126.998 114.976C127.083 115.049 126.95 116.351 128.124 116.96C132.529 115.197 137.089 113.884 141.56 112.298L135.44 111.166C137.314 110.499 140.242 109.4 138.725 107.244C136.125 107.89 133.306 108.103 130.655 108.62L130.662 108.619Z" fill="#F6BD72"/>
  <path d="M97.5297 88.1817C97.4239 88.4094 97.2941 88.7496 97.274 89.0132C101.861 90.2261 108.058 94.1859 110.699 98.1883C110.291 96.8988 110.884 97.029 110.889 96.9704C110.918 96.6329 110.706 96.1921 110.692 95.8184C109.57 94.7015 107.676 93.9835 106.961 92.5008C104.337 90.6351 102.651 87.9517 100.977 85.2156C100.917 85.1174 100.444 85.35 99.4985 83.4944C97.7173 84.8318 98.3614 86.3629 97.5297 88.1817Z" fill="#F6DEA4"/>
  <path d="M118.876 109.053C120.946 109.662 124.495 110.43 126.566 110.113C128.122 109.067 128.914 108.961 130.664 108.626C130.503 106.246 127.444 107.672 125.919 107.462C121.122 106.798 115.437 102.831 118.877 109.06L118.876 109.053Z" fill="#F7AC69"/>
  <path d="M130.197 103.559C132.219 105.159 132.007 105.527 132.128 105.601L133.797 106.104C134.977 105.823 146.007 99.5978 142.331 100.5C143.146 100.194 143.518 97.9695 142.67 97.8684C140.151 100.857 133.977 103.218 130.196 103.552L130.197 103.559Z" fill="#D77D49"/>
  <path d="M130.197 103.559C133.971 103.226 140.151 100.857 142.671 97.8754C145.479 94.5485 144.184 93.1429 144.189 92.8746C144.169 93.1383 144.039 93.4785 143.933 93.7061C140.087 102.089 130.175 104.618 122.048 100.995C119.693 99.9434 118.361 98.1901 116.392 96.8198C114.11 95.2211 115.796 97.6444 116.687 98.5478C119.79 101.698 125.783 103.95 130.19 103.56L130.197 103.559Z" fill="#2C1E19"/>
  <path d="M248.824 182.569C248.773 182.564 248.919 181.599 248.118 181.902C241.399 186.243 233.724 189.041 226.312 191.946C184.532 208.316 142.942 212.835 98.677 205.016C59.084 198.02 10.5415 182.198 5.1972 135.56C4.93789 133.276 4.75138 123.918 5.53529 122.455C5.56321 122.407 6.03641 123.02 6.56336 122.677C6.61596 122.646 6.92753 121.718 6.7532 121.459C4.86978 120.544 2.8248 119.953 1.13672 118.658C7.23202 113.968 7.92673 118.339 14.5082 121.712C18.4538 123.743 24.5082 125.595 26.8985 128.295C27.726 127.807 27.5655 127.798 27.5982 127.778C26.5172 126.271 24.4012 125.179 24.3513 124.971C23.9642 123.295 40.3513 98.6845 44.5573 97.4106C46.0073 87.4771 51.2347 88.0819 51.5653 87.5195C52.8606 85.3253 49.1638 86.8303 46.9254 89.3011C44.1517 92.362 44.1631 95.9887 43.9746 96.3245C43.3673 97.4256 37.7365 100.432 28.3236 115.8C26.6729 118.496 25.0358 121.399 24.0646 124.434C23.3086 124.917 22.3591 123.8 21.7541 123.643C16.8308 122.321 12.6991 119.072 8.62374 116.196L15.3195 116.044C15.4459 116.023 15.5794 116 15.7058 115.978C10.8792 114.206 5.9147 115.313 1.13011 116.288C2.199 111.198 4.56052 106.61 7.00532 102.044C7.66803 100.123 8.33846 99.3079 9.42627 97.6767C9.47975 97.5664 9.10402 97.016 10.4407 95.5303C11.1525 96.3559 9.74891 97.1952 9.42627 97.6767C8.62572 99.3818 7.83346 100.5 7.00532 102.044C6.84544 102.505 5.60012 105.543 6.25324 105.728C35.1355 50.7235 92.7493 18.4897 150.647 2.03096C153.043 3.74756 156.805 4.24072 157.669 4.98254C159.176 6.27253 160.351 10.2429 161.251 12.0846C167.707 25.2311 164.779 20.5691 161.927 20.6653C161.868 21.68 162.609 21.1056 162.888 21.6867C164.52 25.0661 154.06 25.9897 149.591 28.306C146.503 29.9025 135.898 38.7949 132.283 41.5367C131.227 42.3384 130.889 42.8587 129.469 43.5996C125.505 45.6563 127.647 43.2164 125.241 43.1352C117.498 42.8654 100.379 57.213 93.7896 61.5462C83.5732 68.2618 68.6952 71.6303 89.9479 62.2014C83.3408 63.8052 70.5796 69.7114 70.9772 77.2986C69.7309 76.3474 69.8195 78.096 69.5697 78.3266C68.294 79.5344 64.2098 81.7345 61.5202 84.4412C53.6246 95.3149 39.5411 109.911 33.6333 121.422C33.1891 122.293 32.4376 123.353 33.2942 124.053C34.2425 122.706 35.2472 121.392 36.1603 120.008C39.2209 115.366 42.6234 109.465 46.0992 105.265C47.2488 103.869 50.4084 100.316 51.0793 100.86C52.0291 98.0375 57.1834 91.6865 59.363 89.1679C63.215 84.716 64.807 82.3121 70.474 78.9675C70.9457 79.1906 70.7289 80.0806 70.926 80.4735C73.9578 86.4693 77.9922 89.0631 84.5931 86.4483C85.0059 86.2839 86.2068 85.7394 86.3799 85.3557C80.433 86.5506 77.0288 88.2877 73.1069 81.6918C71.5461 79.0666 71.6213 77.5574 72.6925 74.6424C72.9986 73.8095 73.463 72.7183 74.0273 72.0438C78.5783 66.6053 95.0949 67.5474 85.4141 66.9358C88.4598 66.4019 91.5061 63.244 93.7327 63.5438C98.7843 58.2006 105.162 53.7662 111.624 50.2136C114.79 48.4739 122.297 44.2661 125.44 44.3012C129.829 48.8078 136.938 36.4129 146.25 33.0395C145.634 34.0047 144.801 34.8407 144.373 35.9329C144.084 36.6545 143.301 38.2553 143.261 38.6959C143.222 39.1435 143.537 39.8487 143.556 40.4239C143.615 42.0836 143.95 42.7348 144.08 43.5005C144.226 44.3574 144.992 44.4799 144.532 45.0065C138.392 42.9454 127.394 46.816 121.875 50.0558C115.154 53.9995 111.849 59.0737 112.715 67.0364C109.383 67.5034 102.444 69.1928 99.5862 67.6923C98.2136 67.7384 98.5577 68.2725 98.5003 68.2751C98.5279 69.3691 100.962 69.6118 99.1487 70.933C98.8789 71.1308 97.8578 68.746 97.7749 70.9721C97.6533 74.1156 101.569 80.3799 103.425 83.2513C105.044 85.751 110.142 92.3342 112.374 93.9847C113.177 94.5779 115.309 95.3419 116.675 96.0198C125.438 100.359 136.767 103.053 143.574 93.8035C143.615 93.746 143.184 93.3856 144.143 92.521C144.118 91.8674 144.704 89.7941 144.26 89.7325C142.949 91.4958 142.215 93.5076 140.628 95.0938C133.05 102.66 118.268 97.3095 111.496 91.1636C107.998 87.9868 98.183 74.8059 100.111 70.7689C101.001 68.9112 108.734 68.1056 103.566 70.1796C106.206 70.0186 107.147 69.1787 107.342 69.1381C114.307 67.7696 119.196 69.0973 125.799 70.7326C128.523 71.41 138.701 74.2139 140.14 75.9997C142.24 78.6054 142.701 88.2635 137.065 84.6273C136.261 84.1066 132.674 72.8202 125.302 73.5858C119.244 74.2141 127.856 80.5956 125.781 82.2C124.179 83.4419 108.774 78.0019 116.284 78.6802C114.527 78.5532 112.62 77.2015 111.094 78.3798C111.084 76.6683 106.121 76.4737 106.061 77.8574C109.503 81.8532 108.409 88.7408 114.983 91.9495C119.91 94.3477 136.755 94.6338 121.456 92.8191C120.738 91.8284 123.481 92.4882 126.319 91.2018C128.753 90.0927 132.956 85.7907 135.264 85.7223C136.76 85.6769 138.509 88.1327 139.911 86.3106C139.665 88.3041 139.849 88.8728 141.364 90.2119C142.406 89.709 143.384 89.3398 144.564 89.2687C145.271 89.56 144.61 90.8945 144.833 91.9913C145.418 94.8697 145.981 97.2386 147.361 99.8657C147.449 97.9208 151.079 101.704 152.755 102.502C159.468 105.716 167.978 106.629 175.388 106.551C181.311 106.488 187.242 105.837 193.065 104.722L177.961 107.695C182.244 107.254 190.907 106.817 194.356 105.297C195.377 104.841 195.549 102.419 195.953 104.236C196.251 103.484 196.349 103.468 196.456 102.567C196.514 102.059 197.447 101.256 196.239 96.677C195.249 92.9062 190.145 86.7939 187.029 84.4123C182.681 81.084 174.308 78.4351 168.872 77.6272C166.773 77.3129 165.464 77.0518 163.23 77.0063C160.039 76.9433 157.401 77.0679 154.231 77.5507C157.964 75.707 164.31 70.0708 165.755 66.2968C172.011 49.9199 151.918 46.5298 149.912 45.2745C140.412 45.7669 143.766 29.2415 157.73 28.5227C159.084 28.4509 160.199 28.4631 161.414 29.2751C162.501 30.0079 171.991 43.1501 174.061 45.5005C179.914 52.143 179.959 51.1377 186.08 55.7105C186.213 55.8107 186.375 55.9132 186.532 56.0309C187.061 56.4179 189.074 56.6962 192.378 60.1736C195.829 63.7992 196.151 64.7563 197.223 70.0238L197.806 71.1099C206.156 76.3362 209.428 73.653 213.621 85.0169L218.124 90.5738C225.485 96.2724 231.708 103.22 238.378 109.658C239.529 110.771 240.601 111.968 241.723 113.042C244.064 115.281 246.435 117.53 248.793 119.744C254.188 124.81 259.703 129.768 265.183 134.739C265.919 135.408 266.716 136.01 267.494 136.716C271.674 140.506 274.517 144.503 276.181 145.911C277.296 146.855 280.516 148.359 282.347 149.601C283.622 150.468 286.689 151.586 287.641 152.847C288.37 153.815 288.726 155.604 288.964 155.983C291.099 159.306 288.797 160.089 298.285 164.275L299.306 163.313C296.064 161.762 292.047 160.712 291.045 156.618C354.31 94.8827 308.164 37.5942 235.411 23.9423C233.559 23.8462 231.884 23.9005 230.032 23.6743C223.167 22.8354 216.191 22.4058 209.272 22.4727C239.533 23.5286 269.406 30.5347 293.397 49.8349C319.182 70.5857 327.679 98.9184 311.22 128.832C307.253 136.043 301.971 143.045 296.498 149.132C294.676 151.163 293.032 153.352 291.014 155.207C287.653 148.125 280.024 149.036 270.801 137.503C301.419 90.472 244.062 64.6673 205.325 61.8835C221.694 65.0989 238.301 68.3532 252.791 77.1154C275.38 90.7779 285.789 112.488 269.995 136.253C252.563 120.181 235.129 104.109 217.692 88.0381C210.382 75.5215 212.803 76.7061 199.304 70.6158C197.155 55.7229 186.137 55.5779 179.489 49.4831C175.874 46.1673 168.272 33.1223 161.985 27.9562C161.39 24.8916 168.839 27.6764 165.727 17.4366C165.435 16.4888 160.516 5.8704 160.109 5.34711C157.67 2.61151 154.666 3.34787 151.6 0.668505C144.868 0.0165801 109.486 14.5367 101.247 18.349C71.7989 31.9801 40.8234 53.5195 20.2386 78.8168C14.8441 85.4545 -10.0015 118.57 4.4795 122.028C-0.398279 162.125 28.3635 185.158 62.8992 196.87C121.777 216.842 194.372 213.548 248.83 182.561L248.824 182.569Z" fill="#25231E"/>
  <path d="M229.966 23.288C229.966 23.288 230.009 23.6709 230.032 23.6743C230.324 23.6533 231.157 23.5764 231.151 23.2882C230.823 22.9321 230.204 23.3702 229.967 23.295L229.966 23.288Z" fill="#25231E"/>
  <path d="M276.579 100.737C276.207 100.8 277.684 106.281 277.849 107.04C278.92 111.918 278.696 106.325 276.579 100.737Z" fill="#8F8D88"/>
  <path d="M275.932 99.2713C275.637 99.3216 275.833 100.474 276.128 100.423C276.423 100.373 276.227 99.221 275.932 99.2713Z" fill="#848A81"/>
  <path d="M197.794 71.083L197.211 69.9969L196.825 70.0628L197.316 72.9428L197.787 71.0842L197.794 71.083Z" fill="#AA8665"/>
  <path d="M149.459 29.9043C148.2 29.642 147.82 31.7813 149.139 30.3566C149.169 30.3225 150.112 30.046 149.459 29.9043Z" fill="#887666"/>
  <path d="M89.9314 62.1897C68.6787 71.6186 83.5497 68.2513 93.7732 61.5346C92.3789 60.1821 91.1136 61.6629 89.9314 62.1897Z" fill="#E4B181"/>
  <path d="M151.121 29.2234C156.119 28.0602 161.253 27.5677 160.493 26.2445C159.797 25.6402 153.009 27.875 151.121 29.2234Z" fill="#AA8665"/>
  <path d="M6.99008 102.039C7.81821 100.495 8.60463 99.3854 9.41103 97.6721C8.33022 99.3021 7.65983 100.118 6.99008 102.039Z" fill="#9A836E"/>
  <path d="M16.7972 86.5238C12.6586 90.7354 13.4917 92.3571 17.0192 86.6811L16.7972 86.5238Z" fill="#766957"/>
  <path d="M164.87 22.9246L162.031 25.9822C162.836 26.0401 165.679 23.553 164.87 22.9246Z" fill="#C0A382"/>
  <path d="M9.41103 97.6721C9.73246 97.1835 11.1372 96.3512 10.4254 95.5257C9.08997 97.0184 9.45866 97.57 9.41103 97.6721Z" fill="#887666"/>
  <path d="M20.9391 80.678C19.8331 80.5919 19.9404 82.959 20.8477 81.2863C21.0116 80.9764 21.3855 80.7103 20.9391 80.678Z" fill="#766957"/>
  <path d="M11.7012 93.7251C10.5952 93.639 10.7026 96.0061 11.6098 94.3334C11.7738 94.0235 12.1476 93.7574 11.7012 93.7251Z" fill="#9A836E"/>
  <path d="M151.121 29.2234C150.895 29.3847 150.193 29.1648 150.001 29.6095C151.184 30.0584 151.065 29.233 151.121 29.2234Z" fill="#AA8665"/>
  <path d="M140.227 45.3143C131.529 45.7638 113.87 51.8547 113.737 62.6841C122.171 40.6444 162.898 42.0408 160.755 60.2028C160.574 61.7299 158.511 65.2262 157.221 66.1401C149.746 71.4267 157.906 63.797 158.136 63.4107C161.488 58.0177 156.881 52.7458 151.68 51.0666C153.237 49.3048 157.233 53.5387 159.031 55.9428C161.087 54.5224 152.563 46.8753 141.312 47.1025C119.84 47.5331 113.017 63.8044 115.28 67.1556C116.102 68.3744 135.762 68.5926 142.449 76.9505C143.62 75.0882 144.99 72.6136 146.591 71.1047C156.877 61.4064 151.583 74.229 153.176 76.1115C163.324 71.793 171.19 60.1076 160.383 51.1582C156.267 47.7471 145.405 45.0383 140.211 45.3096L140.227 45.3143Z" fill="#F7F7F6"/>
  <path d="M149.675 70.5859C145.495 74.0456 141.957 76.9043 144.591 82.5198L149.675 70.5859Z" fill="#81A168"/>
  <path d="M108.254 78.0472C110.039 94.9973 121.767 95.2815 133.428 85.4211C125.586 83.2164 124.483 85.0164 117.904 88.2637L117.773 87.498C130.364 81.8666 123.998 86.0245 108.256 78.0542L108.254 78.0472Z" fill="#81A168"/>
  <path d="M125.794 74.2681C121.186 74.7504 125.592 77.0206 127.845 82.8167L134.993 84.1711C135.77 80.764 129.637 73.873 125.796 74.2751L125.794 74.2681Z" fill="#81A168"/>
  <path d="M151.279 70.7099C149.828 72.4175 143.707 85.1788 145.634 86.3032C147.69 86.0249 146.426 82.0045 151.275 78.8211L151.273 70.7182L151.279 70.7099Z" fill="#81A168"/>
  <path d="M141.36 90.1908C141.26 90.2369 139.712 91.5852 139.639 91.6698C139.912 92.8883 139.056 92.8247 138.684 93.0182C138.666 93.1225 138.731 93.2922 138.75 93.4045C138.842 93.8587 140.024 94.3077 140.615 95.0599C142.202 93.4736 142.935 91.4548 144.247 89.6986C144.691 89.7602 144.105 91.8335 144.13 92.4871C144.324 92.3095 144.58 92.0777 144.829 91.9702C144.606 90.8734 145.275 89.5378 144.56 89.2476C143.38 89.3188 142.408 89.6797 141.36 90.1908Z" fill="#81A168"/>
  <path d="M100.092 70.7432C101.048 71.1801 102.6 70.5323 103.548 70.1539C108.716 68.0799 100.975 68.8867 100.092 70.7432Z" fill="#76795A"/>
  <path d="M144.868 86.4338C141.461 87.4774 143.664 88.2728 144.678 87.6516C144.744 87.6115 145.146 86.4948 144.868 86.4338Z" fill="#B9B9B6"/>
  <path d="M142.682 85.2236C142.437 85.2292 142.167 85.2607 142.138 85.5115C141.997 86.6776 144.464 85.1654 142.682 85.2236Z" fill="#ABAFA2"/>
  <path d="M120.541 92.1583C120.297 92.0842 119.576 92.3083 119.611 92.512C119.685 92.9475 121.278 92.3722 120.541 92.1583Z" fill="#667253"/>
  <path d="M194.938 96.0821C193.205 100.708 192.329 97.5245 191.031 96.3509C185.301 93.6487 175.441 88.2172 169.961 91.0457C175.542 92.6238 182.862 95.7922 187.705 98.8913C198.188 105.604 178.066 95.215 176.284 94.5141C171.338 92.5529 166.095 91.1339 160.889 90.0194L166.846 98.2922C175.928 104.673 170.456 102.888 166.59 99.1237C164.597 97.1866 161.512 91.554 159.959 90.3732C158.529 89.2797 151.518 87.4972 151.365 88.6727C153.206 93.1584 151.217 97.936 155.51 101.411C150.513 99.1909 152.236 92.4275 150.304 88.2608C139.843 101.553 162.973 105.972 176.572 105.525C178.707 105.457 193.643 104.081 194.439 103.663C196.442 102.613 195.433 97.8409 194.922 96.0704L194.938 96.0821Z" fill="#81A168"/>
  <path d="M155.738 81.8115C161.238 79.0955 165.446 80.5464 165.012 78.2566C160.07 77.9284 153.839 77.5018 149.907 81.23C145.845 85.0818 149.992 87.1069 151.211 86.5447C151.519 86.3983 151.34 83.9928 155.739 81.8186L155.738 81.8115Z" fill="#81A168"/>
  <path d="M163.77 87.1643C160.594 89.1806 162.748 87.3169 162.586 87.1711C161.445 86.1586 155.791 84.9181 154.345 85.2151C148.492 86.4085 155.669 86.999 156.466 87.2245C162.131 88.8246 160.709 87.99 160.956 88.0417C161.24 88.0946 162.385 89.1282 166.409 89.8805C166.492 86.5556 173.704 84.2196 171.316 83.9041C168.218 83.4928 166.066 85.7102 163.77 87.1643Z" fill="#81A168"/>
  <path d="M175.377 106.531L175.443 106.917C175.92 106.872 176.352 106.61 176.627 106.91L176.339 107.552C176.817 107.514 177.017 107.458 177.235 107.002C177.605 107.177 177.36 107.732 177.942 107.669L193.046 104.696C187.223 105.812 181.299 106.461 175.369 106.525L175.377 106.531Z" fill="#D0B476"/>
  <path d="M190.965 95.9645C191.04 96.024 190.953 96.2774 191.031 96.3509C192.329 97.5245 193.205 100.708 194.938 96.0821C194.903 95.958 194.915 95.8186 194.872 95.6957C192.638 95.7299 194.005 94.087 190.965 95.9645Z" fill="#74915B"/>
  <path d="M148.651 87.7621C147.708 87.7422 147.336 89.1646 147.218 89.7847C146.065 95.8654 150.239 87.7948 148.651 87.7621Z" fill="#81A168"/>
  <path d="M165.018 78.2484C165.453 80.5452 161.243 79.0872 155.744 81.8033C154.243 83.7653 151.728 85.2929 154.285 84.8206C156.257 84.6 162.149 85.4601 163.324 86.8357C167.939 81.9861 173.907 83.2887 173.055 84.7785C159.894 92.9576 172.174 88.7237 178.266 89.8174C180.696 90.2558 188.858 94.2492 190.977 95.9551C194.017 94.0706 192.649 95.7134 194.885 95.6863C191.41 85.2698 175.127 78.917 165.031 78.239L165.018 78.2484Z" fill="#81A168"/>
  <path d="M154.279 84.8288L154.345 85.2151C155.791 84.9181 161.445 86.1586 162.586 87.1711C162.748 87.3169 160.595 89.1876 163.77 87.1643C163.307 87.2867 163.371 86.8999 163.318 86.8439C162.137 85.4695 156.251 84.6082 154.279 84.8288Z" fill="#404E36"/>
  <path d="M167.787 81.7302C165.68 82.1762 166.444 83.3905 169.999 81.9456C168.394 82.111 167.898 81.704 167.787 81.7302Z" fill="#607743"/>
  <path d="M179.201 86.1086C178.884 86.0254 177.084 86.448 177.12 86.6587C177.193 87.0872 180.137 86.3393 179.201 86.1086Z" fill="#607743"/>
  <path d="M116.399 96.8186C118.368 98.1889 119.7 99.9422 122.055 100.994C130.182 104.617 140.087 102.089 143.94 93.7049L143.554 93.7708C136.747 103.02 125.417 100.326 116.655 95.9871L116.399 96.8186Z" fill="#D77D49"/>
  <path d="M177.943 107.676C177.361 107.739 177.606 107.184 177.237 107.009C177.017 107.458 176.818 107.521 176.34 107.559C173.936 107.745 171.869 108.336 168.977 108.417C168.917 108.825 170.665 109.669 170.778 109.693C171.563 109.849 171.737 109.768 172.382 109.817C179.448 110.311 188.034 108.825 194.79 106.784C196.168 105.71 195.885 104.349 195.935 104.218C195.531 102.4 195.36 104.829 194.338 105.278C190.891 106.805 182.233 107.234 177.943 107.676Z" fill="#AF9F71"/>
  <path d="M147.351 99.8458C155.864 108.659 164.461 107.915 175.436 106.918L175.37 106.532C167.962 106.617 159.451 105.705 152.737 102.484C151.06 101.678 147.438 97.9009 147.344 99.847L147.351 99.8458Z" fill="#BD7644"/>
  <path d="M107.323 69.1124C111.827 70.6431 121.47 72.0924 125.78 70.7069C119.177 69.0716 114.289 67.7439 107.323 69.1124Z" fill="#BCC196"/>
  <path d="M103.548 70.1539C102.6 70.5323 101.041 71.1813 100.092 70.7432C98.1654 74.7873 107.98 87.9681 111.477 91.1379C118.249 97.2838 133.031 102.635 140.609 95.0681C140.024 94.3077 138.836 93.867 138.744 93.4128C136.759 94.4019 132.206 96.1831 130.295 96.0392C124.923 95.6469 133.906 95.4739 138.678 93.0264C138.787 92.3501 139.225 92.1235 139.634 91.678C139.713 91.5922 141.254 90.2451 141.355 90.1991C139.831 88.8541 139.656 88.2913 139.901 86.2977C138.499 88.1199 136.749 85.657 135.255 85.7094C132.947 85.7778 128.744 90.0799 126.309 91.189C123.473 92.4823 120.728 91.8155 121.446 92.8062C136.745 94.614 119.9 94.3349 114.974 91.9366C108.392 88.7292 109.487 81.8416 106.052 77.8446C106.112 76.4608 111.076 76.6625 111.084 78.3669C112.611 77.1886 114.518 78.5404 116.274 78.6673C108.765 77.989 124.169 83.4291 125.772 82.1872C125.548 82.5289 124.192 81.9073 124.679 81.5856C125.069 81.3311 125.874 82.0251 125.772 82.1872C127.846 80.5757 119.235 74.2012 125.293 73.5729C132.664 72.8073 136.252 84.0938 137.056 84.6144C142.692 88.2506 142.23 78.5925 140.131 75.9869C138.7 74.2069 128.514 71.3972 125.789 70.7197C121.479 72.1053 111.836 70.6559 107.333 69.1253C107.143 69.1576 106.195 69.9988 103.557 70.1668L103.548 70.1539Z" fill="#81A168"/>
  <path d="M138.743 93.4057C138.724 93.2934 138.659 93.1237 138.677 93.0194C133.912 95.4657 124.929 95.6387 130.294 96.0321C132.205 96.1761 136.757 94.3878 138.743 93.4057Z" fill="#323632"/>
  <path d="M138.677 93.0194C139.049 92.8259 139.904 92.8824 139.632 91.671C139.224 92.1165 138.786 92.3431 138.677 93.0194Z" fill="#323632"/>
  <path d="M122.935 80.6831C122.69 80.6887 122.421 80.7202 122.391 80.971C122.251 82.1371 124.717 80.6249 122.935 80.6831Z" fill="#314C1E"/>
  <path d="M125.762 82.1743C125.872 82.0111 125.059 81.3113 124.669 81.5728C124.182 81.8944 125.539 82.5161 125.762 82.1743Z" fill="#25231E"/>
  <path d="M162.249 108.379C164.45 108.698 166.763 108.484 168.977 108.417C171.869 108.336 173.935 107.738 176.34 107.559L176.628 106.917C176.353 106.617 175.921 106.879 175.444 106.924C164.469 107.921 155.872 108.664 147.359 99.8517C149.9 104.666 157.076 107.628 162.256 108.378L162.249 108.379Z" fill="#2C1E19"/>
  <path d="M110.692 95.8184C111.248 96.3669 111.232 96.8613 111.275 96.9045C113.115 99.0484 113.305 100.079 114.463 101.696C114.851 102.237 116.663 103.366 116.741 103.483C119.759 107.66 116.668 104.37 116.485 104.314C115.771 104.111 114.873 105.5 112.637 102.6C113.364 104.875 113.524 105.13 113.488 107.594C115.405 104.426 115.816 108.361 117.533 109.275C118.749 109.921 118.814 109.028 118.875 109.046C115.435 102.817 121.12 106.784 125.916 107.448C127.441 107.658 130.501 106.232 130.661 108.612C133.305 108.096 136.131 107.882 138.731 107.236C139.695 106.999 141.297 106.22 141.734 105.141C144.463 109.952 149.115 108.075 153.535 109.453C154.225 106.676 160.224 111.717 162.247 108.365C157.066 107.608 149.889 104.646 147.349 99.8388C145.963 97.2199 145.399 94.844 144.821 91.9644C144.572 92.0719 144.315 92.3037 144.122 92.4813C144.129 92.6101 144.194 92.7364 144.187 92.8676C144.177 93.1441 145.478 94.5415 142.67 97.8684C143.518 97.9695 143.146 100.194 142.331 100.5C146.016 99.6037 134.979 105.83 133.797 106.104C132.664 106.37 132.918 106.124 132.128 105.601C132.013 105.519 132.219 105.159 130.197 103.559C125.79 103.949 119.797 101.697 116.694 98.5466C115.803 97.6432 114.117 95.2199 116.399 96.8186L116.655 95.9871C115.289 95.3092 113.157 94.5452 112.354 93.9519C112.005 95.6308 108.398 93.5134 106.968 92.4996C107.683 93.9823 109.57 94.7015 110.699 95.8172L110.692 95.8184Z" fill="#EB9154"/>
  <path d="M143.547 93.772L143.933 93.7061C144.039 93.4785 144.167 93.1313 144.189 92.8746C144.196 92.7504 144.13 92.6171 144.123 92.4883C143.164 93.3529 143.595 93.7133 143.554 93.7708L143.547 93.772Z" fill="#9B9F7C"/>
  <path d="M110.699 98.1883C111.546 99.4678 112.17 101.132 112.637 102.6C114.873 105.5 115.771 104.111 116.485 104.314L116.741 103.483C116.656 103.367 114.844 102.238 114.463 101.696C113.305 100.079 113.114 99.0414 111.275 96.9045L110.889 96.9704C110.884 97.029 110.298 96.8976 110.699 98.1883Z" fill="#F7AC69"/>
  <path d="M116.493 104.32C116.675 104.369 119.767 107.665 116.749 103.489L116.493 104.32Z" fill="#5D301F"/>
  <path d="M132.129 105.608C132.914 106.139 132.666 106.384 133.798 106.111L132.129 105.608Z" fill="#5D301F"/>
  <path d="M143.836 101.233C142.388 100.584 142.504 103.34 143.967 101.999C144.254 101.733 144.196 101.396 143.836 101.233Z" fill="#25231E"/>
  <path d="M110.889 96.9704L111.275 96.9045C111.23 96.8543 111.248 96.3669 110.692 95.8184C110.706 96.1921 110.918 96.6329 110.889 96.9704Z" fill="#7D4B2A"/>
  <path d="M202.089 156.536C211.778 159.778 220.927 164.817 230.706 167.87C242.951 169.15 255.173 169.661 267.417 168.729C268.051 167.826 265.221 166.408 265.041 166.366C263.836 166.08 261.916 166.227 260.682 166.322C255.893 166.676 255.374 167.957 241.853 167.162C233.589 166.677 229.132 166.31 221.21 163.172C218.35 162.04 209.775 156.679 207.15 156.078C206.901 156.019 202.271 155.739 202.091 156.543L202.089 156.536Z" fill="#F4E8C4"/>
  <path d="M268.003 153.601C265.021 157.392 264.053 156.762 263.658 157.111C263.28 157.443 263.809 158.379 263.697 158.485C259.98 161.952 258.767 158.523 258.364 161.968C258.562 162.028 261.008 163.403 262.212 163.682C262.558 162.236 261.449 163.314 261.597 162.407C262.022 159.811 265.265 161.579 266.054 163.027C270.084 162.925 272.214 163.039 275.013 159.916C274.246 159.144 273.035 159.162 272.061 158.837C271.892 158.779 268.996 159.555 271.799 157.298C271.666 156.902 270.951 155.802 270.706 155.511C270.47 155.226 268.228 154.669 268.33 153.148C268.237 153.28 268.098 153.484 268.01 153.6L268.003 153.601Z" fill="#FDD481"/>
  <path d="M262.205 163.684C261.974 164.656 261.035 165.083 260.615 165.928L260.681 166.315C261.909 166.228 263.836 166.08 265.04 166.359C267.132 167.144 266.159 163.219 266.053 163.02C265.271 161.571 262.028 159.803 261.596 162.4C261.447 163.307 262.558 162.236 262.211 163.675L262.205 163.684Z" fill="#FDD481"/>
  <path d="M172.73 51.6334C170.329 53.3222 169.432 52.7234 166.748 53.6437C169.886 59.542 167.626 65.1465 167.66 65.9429C167.722 67.4937 167.565 69.1542 167.681 70.6814C167.713 71.1241 168.586 71.2426 168.643 71.7028C171.875 71.0359 178.869 72.2936 179.409 72.2377C179.523 72.2256 179.688 72.2191 179.795 72.1719C179.863 72.1458 179.813 71.2147 180.816 71.2098C180.041 68.7831 177.011 68.9385 176.025 66.2947C173.603 59.8045 179.587 55.0975 185.689 55.7483L186.075 55.6824C179.956 51.1167 179.909 52.1149 174.057 45.4724C174.513 48.3583 175.446 49.7172 172.735 51.6251L172.73 51.6334Z" fill="#FBFCD8"/>
  <path d="M173.516 55.0558C173.085 54.9484 172.474 55.8117 172.717 56.1822C173.173 56.8634 174.309 55.2601 173.516 55.0558Z" fill="#D0996B"/>
  <path d="M187.017 84.3854C190.135 86.7741 195.238 92.8794 196.228 96.6501C200.243 94.1293 210.069 86.4828 211.835 90.8223C212.741 90.8775 216.15 91.9659 216.836 92.3405L218.111 90.5399L213.608 84.983C213.099 85.7709 212.021 84.5812 211.042 83.8375C210.453 83.3957 208.893 82.3391 208.797 82.2469C196.489 89.3697 195.147 82.558 187.023 84.3772L187.017 84.3854Z" fill="#FBFCD8"/>
  <path d="M206.115 86.268C205.016 86.094 204.465 87.6986 205.226 88.0027C205.318 88.0375 206.947 86.7405 206.115 86.268Z" fill="#D39A40"/>
  <path d="M195.431 73.4594C195.8 73.8446 196.497 74.1594 196.459 74.8671C198.546 75.1545 200.8 74.5534 203.704 75.605C206.648 76.6788 210.37 81.3425 211.036 83.8457C212.021 84.5812 213.092 85.7721 213.602 84.9912C209.408 73.6203 206.137 76.3105 197.787 71.0842L197.316 72.9428L196.825 70.0628C195.123 69.1531 191.446 61.8288 192.366 60.1467C189.062 56.6693 187.042 56.3922 186.521 56.004C185.256 58.2076 188.752 58.5366 190.613 61.436C191.135 62.2506 190.447 62.9677 190.489 63.0402C192.428 66.4466 194.252 69.598 195.432 73.4664L195.431 73.4594Z" fill="#F4E8C4"/>
  <path d="M196.824 70.0558L197.21 69.9899C196.138 64.7224 195.816 63.7653 192.365 60.1397C191.444 61.8218 195.122 69.1461 196.824 70.0558Z" fill="#FBFCD8"/>
  <path d="M180.816 71.2098L183.776 73.4737C191.215 77.0914 205.15 74.9752 199.039 77.1957C200.403 77.1871 202.264 76.1903 203.456 76.4424L203.712 75.6108C200.814 74.551 198.554 75.1604 196.467 74.873C191.491 74.1747 185.526 74.7944 181.648 70.2801C185.426 71.0742 189.435 70.8027 189.848 70.855C184.909 69.6083 175.532 70.0581 176.521 62.256C177.196 56.9726 182.93 57.2018 185.631 56.5533C185.889 56.4949 185.753 56.0409 185.69 55.7553C179.588 55.1045 173.604 59.8115 176.026 66.3017C177.012 68.9455 180.042 68.7901 180.818 71.2168L180.816 71.2098Z" fill="#25231E"/>
  <path d="M196.459 74.8671C196.497 74.1594 195.793 73.8458 195.431 73.4594C195.008 73.0111 194.049 71.7941 193.952 71.7382L192.284 71.2348C192.192 71.2071 191.393 71.0976 191.066 71.0449C189.79 71.4433 189.909 70.8735 189.848 70.855C189.435 70.8027 185.419 71.0754 181.648 70.2801C185.525 74.7874 191.491 74.1747 196.467 74.873L196.459 74.8671Z" fill="#F6BD72"/>
  <path d="M185.689 55.7483C185.752 56.0339 185.888 56.4879 185.63 56.5462C182.929 57.1948 177.195 56.9655 176.52 62.249C175.531 70.0511 184.908 69.6013 189.847 70.848C190.276 70.905 190.656 70.9703 191.065 71.0379C191.392 71.0906 192.191 71.2 192.282 71.2278C192.54 71.2995 192.474 70.7831 193.951 71.7312C194.049 71.7941 195.008 73.0111 195.43 73.4524C194.251 69.591 192.426 66.4325 190.486 63.0261C190.445 62.9537 191.133 62.2435 190.61 61.422C188.75 58.5225 185.26 58.1923 186.518 55.99C186.362 55.8793 186.207 55.7756 186.066 55.6695L185.68 55.7354L185.689 55.7483Z" fill="#EB9154"/>
  <path d="M179.44 64.3244C177.822 64.3328 178.72 65.9074 179.316 65.9286C179.52 65.9372 180.567 64.3202 179.44 64.3244Z" fill="#3D3935"/>
  <path d="M192.282 71.2278L193.951 71.7312C192.474 70.7831 192.54 71.2995 192.282 71.2278Z" fill="#D77D49"/>
  <path d="M189.848 70.855C189.908 70.8665 189.79 71.4433 191.066 71.0449C190.651 70.9856 190.277 70.912 189.848 70.855Z" fill="#7D4B2A"/>
  <path d="M246.78 133.497C248.826 136.935 244.735 138.84 242.448 140.56C244.28 140.833 241.446 142.82 240.217 143.709L241.324 147.872C241.638 143.864 246.361 139.517 249.935 138.098C248.143 137.464 249.441 136.686 248.691 130.8C248.051 131.118 247.082 132.852 246.78 133.497Z" fill="#FDD481"/>
  <path d="M241.2 114.678C244.031 117.549 246.127 119.411 246.745 124.011C247.854 123.945 248.334 127.991 248.691 130.8C249.443 136.693 248.143 137.464 249.935 138.098C256.036 135.684 264.327 136.244 269.354 140.714C268.792 139.328 268.256 137.966 267.481 136.682C266.703 135.976 265.906 135.374 265.17 134.705C262.247 136.548 263.58 134.578 260.426 133.54C259.966 133.388 259.834 134.14 259.529 134.091C257.823 133.789 259.384 133.407 259.399 133.325C259.503 132.751 260.038 132.284 260 132.232C259.569 131.525 254.916 130.859 253.914 131.297C257.583 127.888 245.088 121.034 248.774 119.719C246.416 117.504 244.045 115.256 241.704 113.016L241.201 114.685L241.2 114.678Z" fill="#FDD481"/>
  <path d="M257.422 134.45C257.153 134.438 256.558 134.511 256.493 134.804C256.162 136.342 259.467 134.528 257.422 134.45Z" fill="#454D42"/>
  <path d="M259.399 133.325L259.529 134.091C257.824 133.796 259.385 133.414 259.399 133.325Z" fill="#937D4D"/>
  <path d="M106.013 61.4279C107.078 60.3427 108.357 57.4139 107.727 57.5791C106.935 58.784 105.921 59.8316 106.013 61.4279Z" fill="#674F3C"/>
  <path d="M270.979 145.583C271.304 148.506 269.91 150.84 268.317 153.157C268.221 154.67 270.457 155.236 270.693 155.521C272.12 153.543 273.571 148.871 274.829 147.305C274.719 146.196 272.053 145.48 270.98 145.59L270.979 145.583Z" fill="#FBFCD8"/>
  <path d="M274.827 147.298C273.57 148.864 272.12 153.543 270.692 155.514C270.938 155.812 271.652 156.904 271.785 157.301C271.945 157.772 271.913 158.349 272.047 158.839C273.02 159.165 274.232 159.146 274.999 159.919C276.584 158.152 275.579 157.767 275.948 157.386C277.165 156.13 286.392 161.879 282.328 149.575C280.497 148.334 277.276 146.823 276.162 145.885C276.563 146.966 275.381 146.604 274.82 147.299L274.827 147.298Z" fill="#FDD481"/>
  <path d="M272.054 158.838C271.92 158.348 271.952 157.771 271.792 157.3C268.989 159.556 271.885 158.78 272.054 158.838Z" fill="#70676F"/>
  <path d="M280.241 154.673C279.371 154.446 279.692 156.328 280.437 155.825C280.722 155.632 280.574 154.761 280.241 154.673Z" fill="#594D40"/>
  <path d="M276.962 151.676C276.717 151.682 276.448 151.713 276.418 151.964C276.277 153.13 278.744 151.618 276.962 151.676Z" fill="#3D3935"/>
  <path d="M64.7467 92.9773C66.4053 92.0655 68.8432 90.9342 70.6297 90.3909C72.914 87.681 68.9015 88.3942 68.6262 85.5931C66.2123 86.865 63.2868 89.4602 64.7467 92.9773Z" fill="#EB9154"/>
  <path d="M157.718 28.4958L158.629 31.5066C158.959 31.53 159.131 31.6957 159.461 31.7624C161.047 32.0774 161.108 32.609 161.195 32.652C162.108 33.1324 161.837 33.1065 162.091 33.2871C163.884 34.5573 164.896 35.7074 166.333 37.3058C166.564 37.5626 166.763 37.6661 167.295 38.3272C168.31 39.578 170.403 41.3391 170.77 42.4764C171.282 44.0805 171.076 47.7445 170.346 49.2712C172.152 48.8404 171.547 49.6158 170.995 50.7437L172.73 51.6334C175.44 49.7255 174.507 48.3666 174.051 45.4806C171.979 43.1232 162.489 29.981 161.404 29.2552C160.187 28.4362 159.073 28.431 157.72 28.5029L157.718 28.4958Z" fill="#E4B181"/>
  <path d="M149.9 45.2476C144.898 42.1104 145.056 36.2936 150.238 33.328C152.793 31.8658 155.632 31.3093 158.621 31.5008L157.71 28.49C143.747 29.2158 140.399 45.733 149.892 45.2418L149.9 45.2476Z" fill="#E4B181"/>
  <path d="M150.689 33.6414C149.503 35.123 151.55 37.1666 153.072 37.189C153.522 37.199 161.484 35.8268 161.907 35.6823C163.066 35.275 162.913 34.1228 162.09 33.2801C162.055 33.2428 161.359 33.2313 161.194 32.645C161.107 32.602 161.046 32.0704 159.46 31.7553C157.353 31.9917 151.982 32.0258 150.69 33.6484L150.689 33.6414Z" fill="#EB9154"/>
  <path d="M150.238 33.328L150.69 33.6484C151.983 32.0328 157.354 31.9987 159.46 31.7553C159.123 31.6898 158.95 31.5241 158.628 31.4996C155.639 31.3081 152.8 31.8646 150.245 33.3268L150.238 33.328Z" fill="#92552C"/>
  <path d="M149.9 45.2476C151.907 46.5029 171.992 49.8942 165.743 66.2699L167.66 65.9429C167.626 65.1465 169.886 59.542 166.748 53.6437C169.44 52.7293 170.337 53.328 172.73 51.6334L170.995 50.7437C166.482 53.5662 169.393 50.8867 169.647 49.7881C170.19 47.4619 170.18 44.818 170.77 42.4764C170.402 41.3321 168.309 39.571 167.295 38.3272C167.678 39.0497 166.847 39.0107 165.253 40.2584C162.313 42.5525 164.753 40.5894 165.187 39.872C165.261 39.7511 165.791 38.2004 166.333 37.3058C164.895 35.7004 163.884 34.5573 162.091 33.2871C162.915 34.1298 163.069 35.289 161.908 35.6893C161.485 35.8338 153.523 37.2061 153.073 37.196C151.552 37.1736 149.505 35.13 150.69 33.6484L150.238 33.328C145.056 36.2936 144.891 42.1116 149.9 45.2476Z" fill="#EB9154"/>
  <path d="M169.654 49.7869C170.554 49.7707 170.322 49.3405 170.353 49.27C171.083 47.7433 171.291 44.0864 170.777 42.4752C170.18 44.818 170.188 47.4549 169.654 49.7869Z" fill="#3D3935"/>
  <path d="M170.353 49.27C170.322 49.3405 170.554 49.7707 169.654 49.7869C169.4 50.8855 166.489 53.565 171.002 50.7425C171.554 49.6146 172.159 48.8392 170.353 49.27Z" fill="#F7AC69"/>
  <path d="M165.194 39.8708L165.26 40.2572C166.854 39.0095 167.685 39.0485 167.302 38.326C166.77 37.6649 166.564 37.5626 166.34 37.3046C165.798 38.1992 165.268 39.7499 165.194 39.8708Z" fill="#EB9154"/>
  <path d="M161.411 39.721C157.405 44.7123 161.607 41.7621 161.764 40.651C161.795 40.4072 161.69 39.789 161.411 39.721Z" fill="#7D4B2A"/>
  <path d="M165.259 40.2501L165.193 39.8638C164.759 40.5812 162.317 42.5373 165.259 40.2501Z" fill="#7D4B2A"/>
  <path d="M165.536 45.3496C164.256 45.2572 163.987 46.9006 164.647 47.0844C164.738 47.1121 165.645 45.5624 165.536 45.3496Z" fill="#48392B"/>
  <path d="M154.113 40.9654C154.044 40.9411 153.379 41.6183 153.924 42.1833C154.801 43.089 154.577 41.1394 154.113 40.9654Z" fill="#855C41"/>
  <path d="M161.194 32.645C161.366 33.2301 162.055 33.2428 162.09 33.2801C161.835 33.0995 162.107 33.1254 161.194 32.645Z" fill="#8E3D16"/>
  <path d="M165.742 66.2629C164.298 70.0439 157.952 75.6801 154.218 77.5168C157.388 77.034 160.026 76.9094 163.217 76.9724C163.08 73.5406 164.995 72.3971 167.679 70.6744C167.564 69.1472 167.721 67.4867 167.659 65.9359L165.742 66.2629Z" fill="#F6DEA4"/>
  <path d="M164.669 70.3998C164.491 70.3723 163.16 71.5535 163.106 71.6567C162.151 73.3882 165.594 70.524 164.669 70.3998Z" fill="#855C41"/>
  <path d="M71.6307 84.6904C72.2996 85.6462 72.8452 86.5145 74.1376 86.6339C74.0484 85.984 72.1711 84.8079 71.6307 84.6904Z" fill="#D77D49"/>
  <path d="M40.4202 131.129C42.6452 130.699 43.1487 131.574 44.138 132.078C44.8973 132.462 44.4962 132.949 44.9104 133.132C45.6613 133.466 59.8738 137.469 60.6847 137.562C63.2931 137.854 63.567 137.171 64.716 136.874C63.0243 132.124 53.9983 135.861 54.184 130.762C48.5349 129.55 43.2251 127.318 37.5724 126.085C38.0667 128.559 38.971 129.793 40.4074 131.138L40.4202 131.129Z" fill="#FDD481"/>
  <path d="M64.7219 136.866C64.9781 136.801 68.1444 138.415 66.953 133.717C66.1735 133.554 64.4436 133.285 64.3223 132.192C61.9594 131.771 58.8718 131.763 54.1968 130.753C54.0112 135.852 63.0371 132.115 64.7289 136.865L64.7219 136.866Z" fill="#FDD481"/>
  <path d="M32.4541 126.162C32.4144 126.184 32.7909 126.315 31.7545 126.679C31.5229 126.762 31.1983 126.724 30.9889 126.81C38.2483 128.564 40.826 135.585 42.3 136.345C55.5653 139.201 69.0196 141.554 82.2444 144.554C82.0421 143.707 82.5249 144.08 83.1338 142.82C83.1873 142.709 82.3715 140.087 84.2198 142.237C84.4699 142.093 84.823 142.553 84.8616 142.525C86.5335 141.098 82.423 139.457 90.8308 145.063L93.0485 138.36C89.0062 136.78 84.9731 135.465 80.7306 134.533C75.6687 133.416 68.473 133.01 66.3703 132.631L70.5067 133.704C69.5811 134.252 67.9341 133.918 66.953 133.717C68.1444 138.415 64.9781 136.801 64.7219 136.866C63.5728 137.163 63.2989 137.846 60.6905 137.553C59.8796 137.46 45.6601 133.459 44.9162 133.123C44.5008 132.934 44.9031 132.453 44.1438 132.07C40.6284 133.833 40.5906 131.281 40.4261 131.121C38.9896 129.775 38.0854 128.542 37.5911 126.067C35.1962 125.543 35.5886 125.259 35.4773 125.242C31.7418 124.571 33.5906 125.622 32.467 126.153L32.4541 126.162Z" fill="#FDD481"/>
  <path d="M31.7545 126.679C32.7979 126.313 32.4144 126.184 32.4541 126.162L32.3883 125.776C32.3603 125.824 31.7088 126.073 31.7533 126.672L31.7545 126.679Z" fill="#7D4B2A"/>
  <path d="M40.4202 131.129C40.5848 131.289 40.6226 133.841 44.138 132.078C43.1487 131.574 42.6452 130.699 40.4202 131.129Z" fill="#E9E8DC"/>
  <path d="M66.9472 133.725C67.9283 133.927 69.5753 134.26 70.5009 133.712L66.3645 132.639C65.6858 132.516 64.9869 132.317 64.3165 132.2C64.4378 133.293 66.1688 133.569 66.9472 133.725Z" fill="#C29A59"/>
  <path d="M78.4402 139.666C77.7867 139.987 79.0379 141.603 79.2449 140.909C79.4196 140.323 78.5665 139.601 78.4402 139.666Z" fill="#816D4F"/>
  <path d="M75.1029 138.659C74.8079 138.71 75.0702 140.248 75.3652 140.198C75.6602 140.147 75.3979 138.609 75.1029 138.659Z" fill="#79845C"/>
  <path d="M163.842 157.132C161.393 158.033 159.841 158.125 157.31 158.246C157.787 159.689 164.413 159.167 168.011 159.587C174.227 160.305 183.698 163.208 188.006 162.104C186.539 161.263 185.53 159.245 181.427 158.282C180.79 156.027 194.333 161.358 195.244 161.658C195.726 161.814 197.229 161.348 198.64 161.867L199.851 159.687C193.685 158.194 187.703 157.11 181.453 156.102C181.816 157.934 179.092 157.56 177.867 157.111C176.124 159.989 170.486 157.697 170.053 157.655C169.898 157.639 167.132 158.204 166.976 158.18C166.352 158.077 167.937 156.484 163.835 157.133L163.842 157.132Z" fill="#F6BD72"/>
  <path d="M188.013 162.103C189.375 162.89 190.722 163.961 192.189 164.557C193.975 165.279 204.208 168.196 204.331 165.06C204.352 164.55 199.513 162.195 198.65 161.879C197.239 161.361 195.735 161.827 195.253 161.671C194.335 161.372 180.798 156.033 181.437 158.295C185.539 159.251 186.556 161.275 188.015 162.117L188.013 162.103Z" fill="#FDD481"/>
  <path d="M84.214 142.245C83.8189 142.471 83.6775 142.871 83.128 142.828C82.5178 144.081 82.0362 143.715 82.2385 144.563C88.2759 145.933 94.2664 147.282 100.324 148.599C102.521 147.797 104.551 147.198 106.076 145.247C102.789 143.602 101.184 141.563 93.0438 138.376L90.8262 145.079C82.4254 139.471 86.5289 141.113 84.857 142.54C84.8196 142.575 84.4653 142.108 84.2152 142.252L84.214 142.245Z" fill="#F6BD72"/>
  <path d="M83.1268 142.821C83.6775 142.871 83.8247 142.463 84.2128 142.238C82.3645 140.088 83.1803 142.71 83.1268 142.821Z" fill="#9B9F7C"/>
  <path d="M100.177 144.265C99.8035 144.574 100.164 146.182 100.826 145.737C101.409 145.341 100.355 144.119 100.177 144.265Z" fill="#6B6446"/>
  <path d="M127.294 149.131C140.157 150.097 158.039 148.536 164.842 150.239C166.685 150.705 172.088 153.658 178.312 155.061C187.575 156.106 203.884 158.623 212.098 161.95L211.967 161.184C206.029 158.958 200.128 156.647 194.065 154.746C178.53 153.795 163.965 147.092 148.419 146.714C143.266 146.588 136.215 147.661 126.958 147.208L127.285 149.126L127.294 149.131Z" fill="#F6DBB4"/>
  <path d="M123.452 149.787C124.252 150.366 125.444 150.575 126.404 150.866C131.057 150.73 136.666 153.106 141.215 154.268C142.078 150.34 145.586 153.197 153.061 153.036C159.722 152.897 161.569 151.563 153.381 152.583L152.798 150.312C150.19 150.272 146.608 151.013 144.409 150.955C138.569 150.787 129.039 150.381 123.452 149.787Z" fill="#EB9154"/>
  <path d="M152.8 150.319L153.382 152.59C161.576 151.562 159.729 152.896 153.062 153.043C145.579 153.198 142.079 150.347 141.216 154.275C152.128 157.062 158.636 160.47 168.666 152.955C163.693 150.116 158.213 150.4 152.801 150.326L152.8 150.319Z" fill="#EB9154"/>
  <path d="M112.644 137.397C113.388 139.258 115.044 141.129 114.013 143.091C115.151 143.706 116.503 144.047 117.161 145.322C122.776 146.288 124.177 146.2 129.598 146.368L119.621 134.233C117.976 135.266 114.542 136.661 112.651 137.395L112.644 137.397Z" fill="#F7AC69"/>
  <path d="M240.32 169.787L241.1 172.025C258.846 173.314 276.277 169.149 294.008 169.327L295.663 167.462C276.416 167.462 261.373 171.517 240.319 169.78L240.32 169.787Z" fill="#F6DBB4"/>
  <path d="M89.828 135.751C93.0986 136.747 98.4473 139.673 102.598 141.083C105.682 138.23 106.038 139.347 106.243 139.276C109.504 138.142 112.332 137.515 112.644 137.397C114.534 136.655 117.969 135.267 119.614 134.235C120.476 133.69 121.764 131.244 123.449 131.21C123.217 131.119 123.26 129.464 119.149 129.174C119.361 131.054 116.624 133.906 115.131 134.602C105.633 139.048 96.105 134.499 89.8214 133.381L89.828 135.751Z" fill="#FBFCD8"/>
  <path d="M119.613 134.228L129.589 146.362C131.042 146.403 132.499 146.386 133.948 146.406C134.735 145.26 132.15 145.101 130.184 142.899C129.755 142.416 129.206 141.02 128.475 139.829C126.867 137.219 125.388 134.819 124.731 131.772C124.251 131.673 123.91 131.37 123.448 131.203C121.764 131.244 120.481 133.682 119.613 134.228Z" fill="#F6BD72"/>
  <path d="M212.105 161.949C222.291 166.074 220.418 170.521 241.1 172.025L240.32 169.787C223.98 168.439 225.224 166.152 211.973 161.176L212.105 161.949Z" fill="#FDD481"/>
  <path d="M163.842 157.132C167.943 156.476 166.359 158.076 166.983 158.179C167.139 158.203 169.898 157.639 170.06 157.654C170.493 157.696 176.132 159.994 177.874 157.11C179.099 157.558 181.816 157.934 181.46 156.1C177.454 155.454 173.444 155.039 169.725 153.36C168.875 154.228 164.474 156.901 163.849 157.13L163.842 157.132Z" fill="#F6BD72"/>
  <path d="M127.294 149.131L126.967 147.214C118.615 146.809 111.875 145.645 104.046 142.622C112.292 148.849 117.821 148.426 127.294 149.131Z" fill="#EDC896"/>
  <path d="M102.598 141.083C103.165 141.276 103.02 141.395 103.05 141.404C107.818 143.041 112.166 144.468 117.161 145.322C116.503 144.047 115.158 143.705 114.013 143.091C111.451 141.713 108.711 140.821 106.243 139.276C106.038 139.347 105.682 138.23 102.598 141.083Z" fill="#F6DEA4"/>
  <path d="M109.368 118.185C110.072 122.655 107.549 121.38 107.621 121.844C107.713 122.465 111.277 120.31 109.899 123.632C110.37 123.682 111.029 124.025 111.568 124.135C111.522 123.868 111.349 123.486 111.627 123.337C113.695 122.197 115.936 123.556 110.323 116.837C110.037 117.233 109.423 118.125 109.368 118.185Z" fill="#FDD481"/>
  <path d="M103.05 141.404C102.841 141.367 102.266 141.509 102.317 141.724C102.562 142.781 104.27 141.608 103.05 141.404Z" fill="#F6BD72"/>
  <path d="M230.499 146.95C226.676 148.137 221.864 149.203 217.888 149.498C218.424 151.705 214.187 151.062 212.639 151.181C211.995 154.442 215.172 152.939 218.478 152.954C217.228 150.037 221.866 149.557 221.999 152.751C229.752 153.12 232.989 157.014 239.24 163.451C239.854 164.083 239.884 165.235 239.953 165.303C240.385 165.757 242.773 165.349 241.852 167.155C255.38 167.949 255.892 166.669 260.681 166.315L260.615 165.928C259.434 165.486 255.159 162.29 254.836 162.172C251.873 161.072 246.623 161.946 243.997 158.881C244.546 160.956 234.33 153.987 233.982 153.469C233.028 152.07 234.305 150.659 235.323 152.054C238.065 150.076 237.394 151.651 240.01 154.024C240.95 151.565 242.669 158.471 249.409 158.153C244.104 157.135 240.904 153.329 241.33 147.864L240.223 143.701C237.894 145.385 233.441 147.46 230.498 146.943L230.499 146.95Z" fill="#EB9154"/>
  <path d="M201.217 146.804C199.051 147.238 203.547 149.363 204.497 149.801C207.943 151.403 209.031 151.471 212.639 151.181C214.186 151.054 218.424 151.705 217.888 149.498C213.362 149.829 205.4 148.613 201.217 146.804Z" fill="#E4B181"/>
  <path d="M138.732 107.243C140.249 109.399 137.328 110.497 135.447 111.164L141.567 112.297C150.938 108.971 140.869 113.673 133.824 115.59C134.515 118.328 134.239 120.862 134.369 123.406C135.022 122.441 137.497 119.879 138.387 119.164C137.919 119.172 137.553 119.487 137.523 118.718C137.68 118.28 138.486 118.475 138.643 118.332C145.377 112.088 160.479 112.194 168.867 114.761C171.293 112.887 169.218 109.829 170.771 109.695C170.666 109.676 168.911 108.833 168.97 108.419C166.756 108.485 164.443 108.699 162.242 108.38C160.22 111.74 154.228 106.69 153.531 109.469C149.111 108.09 144.451 109.969 141.73 105.156C141.292 106.235 139.689 107.008 138.726 107.251L138.732 107.243Z" fill="#F7AC69"/>
  <path d="M138.643 118.332C144.414 114.963 150.34 113.858 156.883 114.036C161.631 113.827 165.18 114.718 169.763 115.396L169.697 115.01C169.448 114.908 169.126 114.84 168.865 114.754C160.47 112.188 145.375 112.081 138.642 118.325L138.643 118.332Z" fill="#2C1E19"/>
  <path d="M141.567 112.297C137.096 113.883 132.536 115.196 128.131 116.959C129.138 117.481 132.575 115.934 133.824 115.59C140.868 113.666 150.93 108.965 141.567 112.297Z" fill="#2B2224"/>
  <path d="M163.152 110.199C162.879 110.166 161.842 110.357 161.843 110.617C161.846 111.231 165.335 110.455 163.152 110.199Z" fill="#BD7644"/>
  <path d="M138.394 119.163C138.426 119.136 138.628 118.501 138.65 118.331C138.493 118.474 137.68 118.28 137.53 118.717C137.56 119.486 137.933 119.169 138.394 119.163Z" fill="#2C1E19"/>
  <path d="M125.117 131.706L128.475 139.829C129.206 141.02 129.755 142.416 130.184 142.899C132.15 145.101 134.728 145.261 133.948 146.406C140.269 146.514 143.988 145.778 144.518 145.789C144.227 144.892 144.294 143.334 143.993 142.713C143.114 140.904 140.307 141.737 136.224 138.898C132.92 136.606 132.963 136.563 132.354 132.438C132.332 132.312 132.302 132.179 132.288 132.052C130.135 132.484 128.064 131.529 126.005 131.15C125.497 131.056 125.403 131.773 125.109 131.7L125.117 131.706Z" fill="#E4B181"/>
  <path d="M124.731 131.772C125.389 134.826 126.867 137.219 128.475 139.829L125.117 131.706C125.117 131.706 124.811 130.927 124.731 131.772Z" fill="#D0996B"/>
  <path d="M136.225 138.905L132.355 132.445C132.964 136.57 132.92 136.606 136.225 138.905Z" fill="#48392B"/>
  <path d="M132.632 137.544C132.337 137.595 132.533 138.747 132.828 138.696C133.123 138.646 132.927 137.494 132.632 137.544Z" fill="#071726"/>
  <path d="M113.49 107.601C113.448 110.579 112.059 114.43 110.323 116.837C115.936 123.556 113.702 122.195 111.627 123.337C111.35 123.493 111.515 123.869 111.568 124.135C114.019 124.65 118.798 126.097 119.148 129.167C123.259 129.457 123.216 131.112 123.448 131.203C123.912 131.377 124.252 131.68 124.731 131.772C124.804 130.928 125.095 131.703 125.117 131.706C125.404 131.78 125.506 131.061 126.013 131.156C128.074 131.541 130.144 132.49 132.296 132.057C132.253 131.638 132.027 131.286 132.552 131.226C131.839 128.066 132.64 125.977 134.383 123.403C134.26 120.858 134.536 118.324 133.838 115.588C132.582 115.932 129.144 117.473 128.145 116.957C126.965 116.348 127.104 115.045 127.019 114.973C125.174 113.437 122.737 116.31 126.586 110.102C124.515 110.419 120.959 109.652 118.896 109.043C118.828 109.025 118.763 109.918 117.554 109.272C115.837 108.357 115.434 104.421 113.509 107.59L113.49 107.601Z" fill="#FDD481"/>
  <path d="M123.989 121.619C117.143 121.818 119.641 124.009 127.006 123.078C128.128 122.193 124.191 121.614 123.989 121.619Z" fill="#E4B181"/>
  <path d="M243.8 157.729C243.291 157.664 243.952 158.831 243.997 158.881C246.623 161.946 251.873 161.072 254.836 162.172C254.113 160.813 257.747 161.784 258.357 161.969C258.761 158.532 259.973 161.954 263.69 158.486C263.809 158.379 263.279 157.436 263.651 157.112C264.046 156.763 265.007 157.394 267.996 153.603C261.657 158.985 251.198 162.453 243.793 157.73L243.8 157.729Z" fill="#E4B181"/>
  <path d="M254.836 162.172C255.159 162.29 259.435 165.493 260.615 165.928C261.042 165.082 261.974 164.656 262.205 163.684C261.001 163.405 258.555 162.029 258.357 161.969C257.747 161.784 254.106 160.815 254.836 162.172Z" fill="#FDD481"/>
  <path d="M235.316 152.056C234.75 152.463 234.562 153.102 233.975 153.47C234.322 153.982 244.538 160.95 243.99 158.882C243.945 158.832 243.284 157.665 243.793 157.73C242.341 156.799 241.262 155.176 239.996 154.026C237.38 151.653 238.051 150.078 235.309 152.057L235.316 152.056Z" fill="#EB9154"/>
  <path d="M246.428 175.468C248.654 176.1 256.63 174.942 259.754 174.778C256.231 171.541 262.9 175.68 263.922 176.041C264.588 174.857 266.479 175.012 267.247 174.686C268.729 174.05 270.418 173.444 269.865 171.471C261.982 171.912 259.115 173.702 243.6 172.784C243.345 174.129 245.281 175.143 246.428 175.468Z" fill="#F6BD72"/>
  <path d="M259.754 174.778C263.831 178.514 274.183 179.329 279.37 178.553C283.689 177.903 291.616 174.882 295.816 172.98C296.889 172.493 298.125 171.943 299.075 171.239C295.109 171.293 287.626 175.685 283.015 176.746C276.645 178.215 270.111 178.253 263.924 176.048C262.901 175.687 256.232 171.548 259.755 174.785L259.754 174.778Z" fill="#25231E"/>
  <path d="M267.247 174.686C273.446 176.708 284.522 173.8 283.014 176.739C287.625 175.678 295.108 171.286 299.074 171.232C299.119 171.202 299.718 170.515 299.709 170.335C296.087 169.652 275.448 171.155 269.858 171.472C270.417 173.437 268.722 174.051 267.24 174.687L267.247 174.686Z" fill="#EB9154"/>
  <path d="M263.922 176.041C270.116 178.245 276.651 178.207 283.014 176.739C284.522 173.8 273.445 176.701 267.247 174.686C266.48 175.019 264.589 174.864 263.922 176.041Z" fill="#E4B181"/>
  <path d="M299.074 171.232C299.867 171.219 300.272 171.815 300.808 172.121C302.778 173.246 305.123 177.544 305.293 179.857L297.898 180.526C299.931 182.702 302.455 183.898 304.392 186.141C304.695 186.14 307.234 188.482 307.841 183.182C307.234 180.56 305.347 173.856 303.571 172.048C302.986 171.454 300.656 170.506 299.723 170.333C299.726 170.52 299.133 171.2 299.088 171.229L299.074 171.232Z" fill="#FDD481"/>
  <path d="M295.815 172.973C291.615 174.875 283.688 177.896 279.369 178.546C279.616 181.309 279.793 181.033 281.562 182.126C283.067 180.612 290.518 178.148 293.015 177.404C293.553 175.224 293.812 174.623 295.252 176.625C295.394 176.818 295.432 177.889 297.891 180.527L305.286 179.858C305.123 177.544 302.771 173.247 300.801 172.123C299.043 171.858 296.356 175.042 295.808 172.974L295.815 172.973Z" fill="#F6BD72"/>
  <path d="M293.008 177.406C290.511 178.149 283.06 180.613 281.555 182.127C283.706 183.466 286.46 182.961 288.093 183.383C294.414 185.016 297.164 186.181 304.378 186.143C302.441 183.9 299.925 182.71 297.884 180.528C295.418 177.891 295.38 176.82 295.245 176.626C294.53 177.052 293.784 177.172 293.008 177.406Z" fill="#FDD481"/>
  <path d="M295.815 172.973C296.37 175.04 299.05 171.857 300.808 172.121C300.272 171.815 299.867 171.219 299.074 171.232C298.124 171.936 296.881 172.487 295.815 172.973Z" fill="#EB9154"/>
  <path d="M295.245 176.626C294.53 177.052 293.784 177.172 293.008 177.406C293.546 175.225 293.805 174.624 295.245 176.626Z" fill="#F6BD72"/>
  <path d="M106.243 139.276C108.704 140.823 111.451 141.713 114.013 143.091C115.043 141.122 113.387 139.251 112.644 137.397C112.332 137.515 109.506 138.149 106.243 139.276Z" fill="#F6BD72"/>
  <path d="M233.472 120.348C233.412 120.293 232.469 119.637 232.124 119.392C232.017 119.316 230.377 119.531 230.422 118.692C231.218 118.274 232.037 119.349 232.124 119.392C233.546 120.06 232.926 119.899 233.472 120.348C236.649 122.957 236.06 123.022 237.918 126.71C239.085 121.899 235.755 118.686 231.541 117.12C217.506 117.504 234.547 112.625 238.826 121.61C246.672 138.076 211.42 150.774 194.39 136.901C194.629 137.2 194.291 139.036 199.947 141.686L193.565 139.015C205.219 154.167 241.719 149.128 245.071 130.427C246.191 124.193 243.179 117.507 238.19 114.404C225.213 106.33 201.458 112.405 195.289 120.137C184.529 133.624 217.682 148.376 234.078 135.468C233.808 134.82 226.792 138.944 226.911 137.478C234.998 134.718 241.393 127.722 233.479 120.346L233.472 120.348Z" fill="#F7F7F6"/>
  <path d="M210.687 109.603C203.832 111.408 192.696 115.866 189.144 122.37C188.928 122.761 188.726 123.229 188.575 123.653C185.603 131.655 187.638 140.452 192.76 147.053L188.13 134.991C188.751 130.237 188.056 127.138 190.104 123.385C196.587 111.516 226.382 103.355 237.696 112.695C226.296 105.264 195.59 111.729 190.621 124.084C188.671 128.92 191.432 133.162 194.387 136.887C211.419 150.767 246.669 138.062 238.824 121.596C234.545 112.611 217.496 117.492 231.539 117.106C235.752 118.672 239.081 121.878 237.915 126.695C236.059 123.015 236.648 122.95 233.47 120.334C241.392 127.715 234.995 134.704 226.901 137.465C226.782 138.924 233.797 134.8 234.068 135.455C217.68 148.362 184.521 133.618 195.28 120.124C201.449 112.392 225.204 106.318 238.18 114.391C243.169 117.494 246.181 124.18 245.062 130.414C241.702 149.109 205.21 154.154 193.556 139.002C191.003 135.686 190.211 132.525 189.916 133.891C191.386 140.009 195.48 144.312 201.208 146.791C205.391 148.6 213.353 149.816 217.879 149.485C221.855 149.197 226.667 148.124 230.49 146.937C234.807 145.593 238.847 143.263 242.446 140.546C244.733 138.826 248.817 136.923 246.777 133.483C246.698 133.655 246.739 135.036 245.188 136.92C238.661 144.842 244.981 134.729 245.527 133.103C246.079 131.462 246.945 125.524 246.743 123.997C246.124 119.397 244.029 117.535 241.198 114.664C232.438 105.763 221.994 106.612 210.685 109.589L210.687 109.603Z" fill="#25231E"/>
  <path d="M230.499 146.95C233.442 147.467 237.896 145.399 240.224 143.708C241.453 142.819 244.288 140.839 242.455 140.559C238.856 143.269 234.816 145.606 230.499 146.95Z" fill="#D0996B"/>
  <path d="M246.78 133.497C247.082 132.852 248.051 131.118 248.691 130.8C248.334 127.991 247.854 123.945 246.745 124.011C246.948 125.538 246.088 131.475 245.53 133.117C244.983 134.743 238.671 144.855 245.191 136.934C246.741 135.05 246.701 133.669 246.78 133.497Z" fill="#F7F7F6"/>
  <path d="M192.672 123.351C186.455 136.57 207.228 145.049 220.386 140.961C209.511 141.652 190.556 136.926 192.672 123.351Z" fill="#F7F7F6"/>
  <path d="M190.106 123.392L190.622 124.091C195.598 111.735 226.304 105.27 237.697 112.702C226.384 103.362 196.588 111.523 190.106 123.392Z" fill="#F7F7F6"/>
  <path d="M238.245 128.627C236.975 128.468 237.26 134 238.055 129.845C238.165 129.262 238.607 128.674 238.245 128.627Z" fill="#F7F7F6"/>
  <path d="M232.124 119.392C232.038 119.356 231.219 118.281 230.422 118.692C230.377 119.531 232.017 119.316 232.124 119.392Z" fill="#25231E"/>
  <path d="M233.472 120.348C233.412 120.293 232.469 119.637 232.124 119.392C233.546 120.06 232.926 119.899 233.472 120.348Z" fill="#25231E"/>
  <path d="M218.478 152.954C219.186 152.956 220.388 152.671 221.999 152.751C221.866 149.557 217.23 150.044 218.478 152.954Z" fill="#EB9154"/>
  <path d="M233.982 153.469C234.569 153.101 234.75 152.463 235.323 152.054C234.305 150.659 233.028 152.07 233.982 153.469Z" fill="#EB9154"/>
  <path d="M204.497 149.801C206.28 151.868 206.937 153.303 207.149 156.071C209.772 156.665 218.348 162.026 221.209 163.164C229.131 166.302 233.588 166.67 241.852 167.155C242.773 165.349 240.392 165.755 239.953 165.303C239.883 165.228 239.853 164.076 239.24 163.451C232.989 157.014 229.745 153.121 221.999 152.751C220.388 152.671 219.186 152.956 218.478 152.954C215.172 152.939 212.002 154.441 212.639 151.181C209.031 151.471 207.943 151.403 204.497 149.801Z" fill="#EB9154"/>
  <path d="M229.643 159.348C229.503 159.372 228.895 160.047 229.618 160.343C230.426 160.675 230.31 159.234 229.643 159.348Z" fill="#6B6446"/>
  <path d="M132.29 132.066C132.305 132.193 132.335 132.326 132.356 132.452L136.226 138.912C140.309 141.751 143.116 140.918 143.996 142.727C148.931 142.254 154.468 143.998 159.755 143.596C162.495 143.432 164.897 141.793 167.432 141.101L167.752 140.649C167.67 140.634 166.452 140.017 166.404 139.693C157.083 142.757 135.444 144.033 132.546 131.234C132.021 131.295 132.249 131.653 132.29 132.066Z" fill="#E2D8C6"/>
  <path d="M138.394 119.163C137.506 119.885 135.029 122.44 134.376 123.404C132.634 125.986 131.832 128.067 132.545 131.227C135.443 144.026 157.081 142.75 166.403 139.686C177.983 135.882 181.195 123.653 171.955 117.784C168.76 115.748 160.679 114.133 156.888 114.028C144.414 114.58 139.366 119.142 138.393 119.156L138.394 119.163Z" fill="#25231E"/>
  <path d="M151 115.437C142.586 116.829 133.456 121.443 136.931 131.477C139.948 140.186 164.805 139.727 169.636 132.029C165.987 134.538 157.005 137.385 153.124 137.216C146.33 136.922 159.641 135.635 162.215 134.878C166.282 133.678 170.382 130.601 172.305 126.832C174.337 141.073 131.266 145.685 135.457 124.022C124.632 143.354 169.904 146.824 175.559 130.824C180.303 117.401 160.293 113.903 150.994 115.445L151 115.437Z" fill="#F7F7F6"/>
  <path d="M138.643 118.332C138.628 118.501 138.426 119.136 138.387 119.164C139.359 119.143 144.408 114.588 156.883 114.036C150.34 113.858 144.414 114.963 138.643 118.332Z" fill="#F6BD72"/>
  <path d="M156.649 118.428C150.833 118.783 159.689 119.051 162.866 120.136C167.286 121.638 170.867 127.215 169.123 123.218C168.101 120.87 159.152 118.276 156.641 118.429L156.649 118.428Z" fill="#25231E"/>
  <path d="M196.221 96.6513C197.422 101.239 196.495 102.033 196.437 102.542C201.975 107.85 201.38 104.699 201.766 104.799C202.279 104.928 205.376 107.321 210.615 106.847C210.599 106.669 211.008 106.779 210.542 104.09C200.491 103.173 201.178 90.2038 211.835 90.8223C210.068 86.4758 200.243 94.1293 196.228 96.6501L196.221 96.6513Z" fill="#FDD481"/>
  <path d="M219.516 105.726C220.446 105.372 221.957 105.165 222.905 104.75L219.516 105.726Z" fill="#7D4B2A"/>
  <path d="M212.026 91.9825C212.976 93.0204 217.897 96.063 218.035 97.0875C218.264 98.7688 214.429 99.6325 213.402 100.053C213.347 100.786 212.492 101.329 212.447 101.402C212.304 101.621 213.369 102.191 211.171 103.202C217.104 103.492 221.022 100.575 223.56 101.682C220.179 103.09 214.039 104.419 210.529 104.1C210.994 106.782 210.592 106.67 210.602 106.856C210.61 106.905 211.486 106.445 211.466 107.301C211.467 107.395 210.789 107.612 210.478 108.46C210.443 108.553 210.555 108.7 210.544 108.846C213.494 107.794 216.585 106.848 219.503 105.736L222.892 104.76C223.558 104.466 224.494 104.024 225.066 103.601C224.868 103.122 225.847 103.099 225.733 102.895C225.514 102.499 220.346 96.4837 219.815 95.996C217.829 94.1807 214.706 92.3133 212.013 91.9919L212.026 91.9825Z" fill="#EB9154"/>
  <path d="M210.535 104.092C214.044 104.411 220.185 103.082 223.566 101.674C221.028 100.567 217.11 103.484 211.177 103.194C201.819 102.737 202.417 90.8165 212.033 91.9813C214.727 92.3098 217.842 94.1713 219.835 95.9854C220.366 96.4731 225.533 102.488 225.753 102.884C225.868 103.096 224.888 103.111 225.085 103.591C225.335 103.404 226.808 103.731 226.395 101.987C226.348 101.8 225.142 100.661 223.92 99.0476C222.512 97.1914 218.834 93.4237 216.851 92.3452C216.165 91.9705 212.748 90.8763 211.851 90.8269C201.193 90.2084 200.506 103.178 210.557 104.095L210.535 104.092Z" fill="#2C1E19"/>
  <path d="M211.177 103.194C213.369 102.191 212.311 101.62 212.453 101.394C211.543 100.638 212.645 100.356 213.408 100.045C214.436 99.6313 218.271 98.7676 218.041 97.0793C217.904 96.0618 212.982 93.0121 212.032 91.9743C202.416 90.8095 201.818 102.73 211.176 103.187L211.177 103.194Z" fill="#EB9154"/>
  <path d="M212.446 101.395C212.491 101.322 213.352 100.777 213.401 100.046C212.637 100.357 211.536 100.639 212.446 101.395Z" fill="#7D4B2A"/>
  <path d="M209.233 97.5983C209.039 97.5663 207.955 98.3294 207.989 98.4031C208.309 99.0931 209.955 97.721 209.233 97.5983Z" fill="#523627"/>
  <path d="M212.366 97.4542C211.499 97.5805 211.83 98.5867 212.177 98.6721C212.252 98.6882 212.642 97.4146 212.366 97.4542Z" fill="#523627"/>
  <path d="M249.935 138.098C246.36 139.51 241.637 143.857 241.324 147.872C240.898 153.337 244.098 157.143 249.403 158.161C242.657 158.48 240.944 151.573 240.004 154.032C241.269 155.175 242.342 156.806 243.802 157.736C251.206 162.458 261.658 158.992 268.004 153.608C268.094 153.499 268.232 153.295 268.324 153.156C269.918 150.846 271.311 148.505 270.986 145.582C270.797 143.88 269.997 142.281 269.369 140.718C264.341 136.241 256.051 135.689 249.95 138.103L249.935 138.098Z" fill="#25231E"/>
  <path d="M242.752 151.583C243.22 150.129 244.65 149.401 244.729 149.272C244.751 149.232 244.508 149.078 244.985 148.441C245.102 148.283 244.938 148.297 245.62 147.544C249.812 142.926 260.036 137.315 265.018 143.051C267.591 146.017 267.865 148.854 266.656 152.653C273.689 146.639 267.916 137.114 257.569 137.599C250.628 137.922 240.643 143.239 242.761 151.588L242.752 151.583Z" fill="#E9E8DC"/>
  <path d="M250.187 153.474L248.794 156.877C255.005 158.673 259.882 156.584 265.182 153.295L265.241 152.497C260.42 153.384 255.123 154.873 250.188 153.481L250.187 153.474Z" fill="#F6BD72"/>
  <path d="M242.752 151.583C243.518 154.589 245.942 156.048 248.794 156.877L250.187 153.474C248.478 152.992 245.301 151.141 244.728 149.265C244.649 149.394 243.219 150.122 242.751 151.576L242.752 151.583Z" fill="#F6DEA4"/>
  <path d="M245.617 147.53C245.573 147.567 245.574 148.253 244.982 148.427C244.507 149.071 244.75 149.225 244.727 149.258C245.299 151.134 248.477 152.984 250.185 153.467C255.114 154.86 260.418 153.37 265.239 152.483L265.18 153.28C265.631 153.001 266.211 153.011 266.652 152.632C267.86 148.826 267.587 145.996 265.014 143.03C259.921 138.636 250.101 143.816 245.616 147.523L245.617 147.53Z" fill="#EB9154"/>
  <path d="M245.617 147.53C250.095 143.825 259.916 138.644 265.016 143.037C260.041 137.3 249.816 142.911 245.617 147.53Z" fill="#48392B"/>
  <path d="M262.144 145.905C256.47 155.351 262.469 147.938 262.562 147.214C262.599 146.962 262.425 145.943 262.144 145.905Z" fill="#7D4B2A"/>
  <path d="M253.956 150.062C254.752 149.435 255.809 148.98 255.035 148.295C253.616 148.877 254.022 149.986 253.956 150.062Z" fill="#594D40"/>
  <path d="M253.956 150.062C253.889 150.139 252.367 150.406 252.137 150.965C253.169 151.469 253.88 150.126 253.956 150.062Z" fill="#594D40"/>
  <path d="M244.983 148.434C245.582 148.259 245.58 147.566 245.618 147.537C244.937 148.29 245.094 148.277 244.983 148.434Z" fill="#674F3C"/>
  <path d="M36.1438 119.996C36.657 120.039 36.9046 120.474 37.4262 120.565L39.7299 120.172C38.6758 117.721 41.3355 117.636 42.7926 116.094C43.9977 114.811 44.4554 112.875 44.9578 112.558C45.1997 112.409 47.4014 113.24 49.8787 110.136C49.9178 108.416 50.7257 101.838 51.0616 100.841C50.3908 100.298 47.2324 103.858 46.0816 105.247C42.6058 109.446 39.2032 115.347 36.1426 119.989L36.1438 119.996Z" fill="#EB9154"/>
  <path d="M54.1593 105.062C53.9845 105.605 50.5714 114.283 49.5466 112.766C49.8357 111.792 49.8684 111.135 49.8857 110.135C47.4084 113.239 45.2056 112.4 44.9649 112.557C44.4624 112.874 44.0047 114.81 42.7996 116.093C41.3437 117.642 38.6828 117.72 39.7369 120.171C39.2559 121.207 38.1939 120.702 37.4332 120.564C36.9117 120.472 36.664 120.038 36.1508 119.995C35.2378 121.379 34.2331 122.693 33.2848 124.04C32.0755 125.764 32.4383 125.688 32.3953 125.775L32.4612 126.161C33.5778 125.631 31.736 124.579 35.4715 125.25C50.5683 127.996 65.9497 134.784 81.3001 130.88C91.2784 131.795 105.466 138.744 115.006 133.828C121.73 130.368 115.263 124.018 107.413 124.056C104.806 124.067 103.736 125.594 101.778 124.619C101.643 124.548 101.008 124.982 100.946 124.363C92.7208 129.149 80.984 130.934 71.5609 129.375C59.3119 127.351 52.4269 116.178 56.0248 104.346C55.949 104.41 55.7289 103.84 54.1734 105.059L54.1593 105.062Z" fill="#EB9154"/>
  <path d="M107.675 127.965C105.093 127.487 107.44 129.595 108.258 129.051C108.751 128.721 107.981 128.021 107.675 127.965Z" fill="#855C41"/>
  <path d="M47.0421 120.118C47.8378 122.708 44.0607 127.132 47.7229 122.966L47.0421 120.118Z" fill="#855C41"/>
  <path d="M42.8063 118.462C41.3627 118.643 43.0425 120.526 43.5463 119.326C43.6798 119.007 42.9198 118.45 42.8063 118.462Z" fill="#775243"/>
  <path d="M37.4274 120.572C38.1951 120.709 39.2571 121.214 39.7311 120.179L37.4274 120.572Z" fill="#855C41"/>
  <path d="M52.1214 126.762C52.0793 126.77 51.4377 127.457 51.8657 127.594C52.9446 127.945 52.8592 126.723 52.1214 126.762Z" fill="#191616"/>
  <path d="M98.257 128.386C97.962 128.436 98.1584 129.588 98.4534 129.538C98.7484 129.487 98.5519 128.335 98.257 128.386Z" fill="#775243"/>
  <path d="M89.828 135.751L89.8214 133.381C87.2944 132.93 83.9983 131.996 81.4895 132.033C68.3904 132.229 86.3593 134.694 89.8351 135.749L89.828 135.751Z" fill="#E1AA60"/>
  <path d="M70.6297 90.3909C68.8432 90.9342 66.3983 92.0667 64.7467 92.9773C61.9648 94.507 58.4499 96.104 57.9808 99.6682C61.2263 94.6691 67.7441 91.4397 73.4837 90.8945C60.4213 95.204 57.3836 103.117 56.0108 104.348C52.4129 116.181 59.2979 127.353 71.5468 129.377C80.97 130.936 92.7067 129.152 100.932 124.366C102.575 123.406 108.312 119.37 109.368 118.185C109.423 118.125 110.037 117.233 110.323 116.837C112.059 114.43 113.454 110.571 113.49 107.601C113.525 105.137 113.366 104.883 112.638 102.607C112.171 101.14 111.547 99.4749 110.7 98.1953C108.058 94.1859 101.862 90.2331 97.2752 89.0203C92.9534 87.8779 88.5268 87.8159 84.0735 88.1055C80.0499 88.3724 74.507 89.2237 70.6309 90.398L70.6297 90.3909Z" fill="#25231E"/>
  <path d="M100.932 124.366C101 124.976 101.629 124.551 101.764 124.622C104.121 123.439 107.31 123.365 109.899 123.632C111.27 120.311 107.713 122.465 107.621 121.844C107.549 121.38 110.072 122.655 109.368 118.185C108.312 119.37 102.577 123.413 100.932 124.366Z" fill="#F6BD72"/>
  <path d="M57.9808 99.6682C56.8023 101.488 56.6148 102.381 56.012 104.355C57.3778 103.125 60.4225 95.211 73.4849 90.9016C67.7453 91.4467 61.2275 94.6762 57.982 99.6752L57.9808 99.6682Z" fill="#EDC896"/>
  <path d="M105.05 95.1976C109.024 99.4714 108.85 105.653 106.519 110.763C108.826 120.005 108.471 110.763 110.185 113.694C114.613 105.291 112.076 100.332 105.371 94.7454L105.05 95.1976Z" fill="#F4E8C4"/>
  <path d="M103.902 113.978C105.806 116.241 101.168 116.381 103.478 120.773C106.866 118.135 108.032 117.77 110.179 113.703C108.465 110.771 108.827 120.012 106.514 110.771C105.472 111.701 104.912 113.032 103.896 113.986L103.902 113.978Z" fill="#F6DBB4"/>
  <path d="M81.0239 128.158C80.987 127.688 80.5964 127.856 80.5718 127.838C73.335 128.038 66.1852 125.824 60.1765 121.825C64.9862 128.414 73.7899 128.46 81.0227 128.151L81.0239 128.158Z" fill="#EDC896"/>
  <path d="M99.7535 117.454L101.757 122.252C102.414 121.822 102.897 121.226 103.478 120.773C101.168 116.381 105.806 116.241 103.902 113.978C103.467 114.392 99.992 117.327 99.7535 117.454Z" fill="#F6DBB4"/>
  <path d="M60.1777 121.832C60.1214 121.798 60.2748 121.172 59.4053 120.778C58.8591 121.602 60.14 121.781 60.1777 121.832Z" fill="#EDC896"/>
  <path d="M75.8788 89.8934C75.6138 89.8229 74.5337 90.1011 74.5697 90.3118C74.6439 90.7473 76.6972 90.1152 75.8788 89.8934Z" fill="#887666"/>
  <path d="M80.5718 127.838C80.5718 127.838 80.9858 127.681 81.0239 128.158C90.4022 127.759 93.7745 127.488 101.757 122.252L99.7535 117.454C80.8321 127.627 46.959 117.342 62.2745 100.519C71.8989 89.9504 97.3927 86.9545 105.05 95.1976L105.371 94.7454C85.9713 78.5944 44.9034 100.033 58.854 118.689C64.2658 125.927 79.0316 126.648 80.5787 127.837L80.5718 127.838Z" fill="#F7F7F6"/>
  <path d="M99.7535 117.454C99.992 117.327 103.467 114.392 103.902 113.978C104.917 113.024 105.478 111.692 106.519 110.763C108.85 105.653 109.025 99.4784 105.05 95.1976C97.3927 86.9545 71.8989 89.9504 62.2745 100.519C46.959 117.342 80.8321 127.627 99.7535 117.454Z" fill="#25231E"/>
  <path d="M102.426 96.0426C101.528 95.3501 97.0823 92.212 101.202 94.6684C101.732 94.9827 102.414 95.3363 102.426 96.0426C104.407 97.5698 104.907 98.4243 106.157 100.546C102.608 86.2603 73.0063 90.0868 63.1047 100.768C49.9683 114.942 75.8449 124.574 93.024 118.594C102.105 115.434 110.757 104.59 102.418 96.0368L102.426 96.0426Z" fill="#F7F7F6"/>
  <path d="M102.426 96.0426C102.421 95.3351 101.732 94.9827 101.202 94.6684C97.0823 92.212 101.528 95.3501 102.426 96.0426Z" fill="#25231E"/>
</svg>